<?xml version="1.0" encoding="UTF-8" standalone="no"?>
<!-- Created with Inkscape (http://www.inkscape.org/) -->

<svg
   xmlns:dc="http://purl.org/dc/elements/1.1/"
   xmlns:cc="http://creativecommons.org/ns#"
   xmlns:rdf="http://www.w3.org/1999/02/22-rdf-syntax-ns#"
   xmlns:svg="http://www.w3.org/2000/svg"
   xmlns="http://www.w3.org/2000/svg"
   xmlns:sodipodi="http://sodipodi.sourceforge.net/DTD/sodipodi-0.dtd"
   xmlns:inkscape="http://www.inkscape.org/namespaces/inkscape"
   width="1052.3622"
   height="744.09448"
   id="svg2"
   version="1.1"
   inkscape:version="0.48.3.1 r9886"
   sodipodi:docname="commutative.svg"
   inkscape:export-filename="/home/substack/projects/talks/nodefest_japan/images/commutative.png"
   inkscape:export-xdpi="100.02762"
   inkscape:export-ydpi="100.02762">
  <defs
     id="defs4" />
  <sodipodi:namedview
     id="base"
     pagecolor="#110b0a"
     bordercolor="#666666"
     borderopacity="1.0"
     inkscape:pageopacity="1"
     inkscape:pageshadow="2"
     inkscape:zoom="0.49497475"
     inkscape:cx="720.28464"
     inkscape:cy="234.80936"
     inkscape:document-units="px"
     inkscape:current-layer="layer1"
     showgrid="false"
     inkscape:window-width="1364"
     inkscape:window-height="766"
     inkscape:window-x="0"
     inkscape:window-y="0"
     inkscape:window-maximized="0" />
  <metadata
     id="metadata7">
    <rdf:RDF>
      <cc:Work
         rdf:about="">
        <dc:format>image/svg+xml</dc:format>
        <dc:type
           rdf:resource="http://purl.org/dc/dcmitype/StillImage" />
        <dc:title />
      </cc:Work>
    </rdf:RDF>
  </metadata>
  <g
     inkscape:label="Layer 1"
     inkscape:groupmode="layer"
     id="layer1"
     transform="translate(0,-308.2677)">
    <path
       style="fill:#00ff00;stroke:#ffffff;stroke-width:1.18707216px;stroke-linecap:butt;stroke-linejoin:miter;stroke-opacity:0"
       d="m 204.22521,593.42846 c -36.09448,0 -49.50826,27.79811 -49.18931,46.74097 9.37126,3.7485 14.17704,0 24.00112,0 1.34098,0 3.40641,1.41608 3.59831,1.22417 3.78885,-3.78884 1.203,-15.63334 4.78539,-19.21573 1.19049,-1.19049 3.70688,-2.3412 5.97245,-3.56122 3.98066,1.4612 11.38348,2.92559 15.61742,7.15953 2.90543,2.90543 2.44947,11.39011 1.92899,18.99316 -8.53248,0.009 -20.43338,-0.48877 -23.51886,2.59672 -2.88265,2.88265 -10.96144,7.29841 -15.58033,9.60786 -9.98212,4.99106 -13.40687,23.21544 -17.99156,32.38481 -4.88594,9.7719 4.78539,26.75633 4.78539,32.34772 0,8.94191 73.85633,6.49362 80.34994,0 1.93693,-1.93691 -0.83333,-27.04565 1.22417,-31.16064 9.77961,-19.55925 -0.51172,-66.94305 -9.60786,-85.13534 -1.56139,-3.12278 -7.46965,-6.28258 -9.60787,-8.42079 -3.32879,-3.32879 -11.68006,-3.56122 -16.76739,-3.56122 z m 9.57077,76.71454 c 0.59612,2.36172 -2.37415,2.71265 -2.37415,12.01911 0,5.16607 -0.17006,18.12453 -3.59831,21.55278 -3.02244,3.02243 -42.93213,6.70139 -31.19774,-16.7674 4.24452,-8.48902 9.23823,-10.01658 17.99156,-14.39325 0.724,-0.36199 3.044,0.55432 3.59831,0 1.79096,-1.79097 12.51962,-2.41124 15.58033,-2.41124 z"
       id="path3482"
       inkscape:connector-curvature="0" />
    <path
       style="fill:#ff5555;stroke:#ffffff;stroke-width:1.18707216000000004px;stroke-linecap:butt;stroke-linejoin:miter;stroke-opacity:0;fill-opacity:1"
       d="m 316.99894,604.71864 c -1.68685,-0.022 -3.87255,0.0352 -6.04665,0.11122 -4.34818,0.1526 -8.63804,0.45298 -8.86594,0.77902 -1.02413,1.46511 -1.51734,3.2349 -2.26286,4.85958 -0.87084,11.407 -0.42878,22.89226 -0.037,34.57348 -2.75715,0.23583 -5.48651,0.42365 -8.3466,0.51934 -10.44621,0.34949 -20.04351,0.47943 -30.01067,-0.22258 -1.02254,2.82699 -4.86189,21.02005 -1.59512,24.07531 1.64979,1.54297 20.42225,0.51754 39.43305,-0.18548 -0.006,0.18163 0.006,0.302 0,0.48225 0.32141,-0.14773 0.5638,-0.29926 0.85321,-0.44515 -1.14,0.95464 -2.33388,2.0742 -3.56122,3.30154 -0.89521,0.89522 1.18707,18.43577 1.18707,23.96402 0,2.10459 -1.19949,7.60544 -1.89189,12.87232 7.56601,0.007 23.08996,1.12913 23.48177,1.52093 1.17895,1.17895 3.45342,1.27401 6.04665,1.03869 -0.0265,-0.37337 -0.037,-0.7593 -0.037,-1.03869 l 0,-16.80449 c 0,-7.61901 0.4843,-18.03184 1.22417,-24.78013 0.0737,0.0233 0.14902,0.0512 0.22257,0.0742 -0.0503,-0.17564 -0.13285,-0.34434 -0.18548,-0.51934 0.002,-0.0254 0.0342,-0.0489 0.037,-0.0742 5.81952,0.16919 10.35605,0.6247 12.39007,1.55804 1.41347,0.6486 17.53369,2.35747 19.25282,0.51934 1.29175,-1.38118 -0.37488,-11.06907 -0.44515,-13.16908 -0.0814,-2.43554 3.16835,-14.43107 0.63063,-16.80449 -0.21321,-0.19941 -31.44682,2.06966 -37.02181,2.37414 -0.63498,-15.17233 -0.0514,-37.04742 -1.37255,-38.28308 -0.17805,-0.16651 -1.39212,-0.27486 -3.07897,-0.29676 z"
       id="path3503"
       inkscape:connector-curvature="0" />
    <path
       style="fill:#4141ff;stroke:#ffffff;stroke-width:1.18707216000000004px;stroke-linecap:butt;stroke-linejoin:miter;stroke-opacity:0;fill-opacity:1"
       d="m 398.21797,551.31697 c -7.12736,-0.26867 -19.83587,5.69906 -22.51728,7.30791 -8.75398,17.16464 1.40344,25.30926 -2.41124,44.38264 -3.55543,17.77721 -1.21212,24.95438 -1.21212,43.17146 0,6.03652 1.89718,15.89833 0,21.58988 -1.44294,4.32882 -4.50199,30.50324 -2.37414,34.75896 2.18338,4.36676 1.34211,12.13704 4.78538,15.58032 10.52257,10.52255 8.37715,4.01655 21.58988,8.42079 30.7092,10.23641 64.87687,-13.60985 74.34039,-43.17975 6.72012,-20.99777 0.58252,-46.21516 -14.39418,-68.37264 -3.45252,-5.10785 -20.94936,-4.45401 -26.36039,-7.15953 -4.57907,-2.28953 -26.97677,6.60905 -27.60225,5.98357 -4.41049,-4.41048 5.03543,-56.12666 0.0139,-61.14815 -0.85649,-0.85649 -2.21322,-1.27346 -3.85799,-1.33546 z m 21.52773,86.78243 c 14.13691,2.75129 27.81025,7.23152 25.49889,24.87296 -0.78101,5.96109 -5.7019,19.77354 -8.39576,25.16127 -6.64542,13.29079 -24.02042,19.16213 -33.57376,9.6088 -3.09962,-3.09962 1.18708,-21.80967 1.18708,-26.37526 2.09715,-12.16137 2.2719,-25.21313 3.59831,-28.77915 3.72558,-2.98047 7.78468,-5.24773 11.68524,-4.48862 z"
       id="path3556"
       inkscape:connector-curvature="0"
       sodipodi:nodetypes="scsssssssssssssssssccs" />
    <path
       style="fill:#c8b7b7;fill-opacity:1;stroke:#ffffff;stroke-width:1.18707216px;stroke-linecap:butt;stroke-linejoin:miter;stroke-opacity:0"
       d="m 488.41054,616.19368 c 1.82053,-1.49571 16.79442,-1.19912 31.17723,-1.19912 7.24653,0 18.5318,-2.21659 25.1816,0 9.71307,3.23769 18.49745,0 27.57985,0 1.65595,0 14.38949,-2.69808 14.38949,-2.39825 0,6.74834 -3.59738,12.34321 -3.59738,19.18599 0,0.73175 0.46723,4.32927 0,4.7965 -1.45906,1.45907 -12.09675,0 -14.38949,0 -9.16537,0 -76.41819,7.52047 -80.3413,3.59736 -2.91888,-2.91888 0,-18.55638 0,-23.98248 z"
       id="path3561"
       inkscape:connector-curvature="0" />
    <path
       style="fill:#c8b7b7;fill-opacity:1;stroke:#ffffff;stroke-width:1.18707216px;stroke-linecap:butt;stroke-linejoin:miter;stroke-opacity:0"
       d="m 490.80879,674.95076 c 0.1636,4.72703 -3.68877,23.89109 0,27.57986 0.77266,0.77265 42.54438,-8.70592 50.3632,-4.7965 1.7419,0.87095 38.92781,1.84241 39.5711,1.19912 3.0346,-3.03459 0,-24.08652 0,-28.77897 0,-1.59883 1.13054,-3.66595 0,-4.7965 -1.69907,-1.69906 -9.79761,1.19912 -11.99125,1.19912 -17.3344,0 -65.47366,0.91223 -77.94305,8.39387 z"
       id="path3563"
       inkscape:connector-curvature="0" />
    <path
       inkscape:connector-curvature="0"
       id="path3565"
       d="m 880.53113,593.42846 c -36.09447,0 -49.50826,27.79811 -49.1893,46.74097 9.37126,3.7485 14.17703,0 24.00111,0 1.34098,0 3.40641,1.41608 3.59832,1.22417 3.78884,-3.78884 1.203,-15.63334 4.78538,-19.21573 1.19049,-1.19049 3.70688,-2.3412 5.97246,-3.56122 3.98065,1.4612 11.38347,2.92559 15.61742,7.15953 2.90543,2.90543 2.44946,11.39011 1.92899,18.99316 -8.53249,0.009 -20.43338,-0.48877 -23.51887,2.59672 -2.88265,2.88265 -10.96144,7.29841 -15.58032,9.60786 -9.98213,4.99106 -13.40688,23.21544 -17.99157,32.38481 -4.88594,9.7719 4.78539,26.75633 4.78539,32.34772 0,8.94191 73.85633,6.49362 80.34995,0 1.93692,-1.93691 -0.83334,-27.04565 1.22417,-31.16064 9.77961,-19.55925 -0.51173,-66.94305 -9.60787,-85.13534 -1.56139,-3.12278 -7.46965,-6.28258 -9.60786,-8.42079 -3.32879,-3.32879 -11.68007,-3.56122 -16.7674,-3.56122 z m 9.57077,76.71454 c 0.59612,2.36172 -2.37414,2.71265 -2.37414,12.01911 0,5.16607 -0.17006,18.12453 -3.59832,21.55278 -3.02244,3.02243 -42.93212,6.70139 -31.19774,-16.7674 4.24452,-8.48902 9.23824,-10.01658 17.99157,-14.39325 0.72399,-0.36199 3.04399,0.55432 3.59831,0 1.79096,-1.79097 12.51961,-2.41124 15.58032,-2.41124 z"
       style="fill:#00ff00;stroke:#ffffff;stroke-width:1.18707216px;stroke-linecap:butt;stroke-linejoin:miter;stroke-opacity:0" />
    <path
       inkscape:connector-curvature="0"
       id="path3567"
       d="m 771.46693,604.71864 c -1.68686,-0.022 -3.87255,0.0352 -6.04665,0.11122 -4.34819,0.1526 -8.63804,0.45298 -8.86595,0.77902 -1.02412,1.46511 -1.51734,3.2349 -2.26285,4.85958 -0.87084,11.407 -0.42879,22.89226 -0.037,34.57348 -2.75715,0.23583 -5.48652,0.42365 -8.3466,0.51934 -10.44621,0.34949 -20.04351,0.47943 -30.01067,-0.22258 -1.02254,2.82699 -4.86189,21.02005 -1.59513,24.07531 1.64979,1.54297 20.42226,0.51754 39.43306,-0.18548 -0.006,0.18163 0.006,0.302 0,0.48225 0.32141,-0.14773 0.5638,-0.29926 0.8532,-0.44515 -1.13999,0.95464 -2.33388,2.0742 -3.56121,3.30154 -0.89521,0.89522 1.18707,18.43577 1.18707,23.96402 0,2.10459 -1.19949,7.60544 -1.8919,12.87232 7.56602,0.007 23.08997,1.12913 23.48177,1.52093 1.17896,1.17895 3.45342,1.27401 6.04665,1.03869 -0.0265,-0.37337 -0.037,-0.7593 -0.037,-1.03869 l 0,-16.80449 c 0,-7.61901 0.4843,-18.03184 1.22417,-24.78013 0.0737,0.0233 0.14902,0.0512 0.22257,0.0742 -0.0503,-0.17564 -0.13286,-0.34434 -0.18548,-0.51934 0.002,-0.0254 0.0342,-0.0489 0.037,-0.0742 5.81951,0.16919 10.35605,0.6247 12.39006,1.55804 1.41347,0.6486 17.5337,2.35747 19.25283,0.51934 1.29175,-1.38118 -0.37489,-11.06907 -0.44515,-13.16908 -0.0814,-2.43554 3.16834,-14.43107 0.63063,-16.80449 -0.21321,-0.19941 -31.44682,2.06966 -37.02181,2.37414 -0.63498,-15.17233 -0.0514,-37.04742 -1.37256,-38.28308 -0.17804,-0.16651 -1.39211,-0.27486 -3.07896,-0.29676 z"
       style="fill:#ff5555;stroke:#ffffff;stroke-width:1.18707216000000004px;stroke-linecap:butt;stroke-linejoin:miter;stroke-opacity:0;fill-opacity:1" />
    <path
       sodipodi:nodetypes="scsssssssssssssssssccs"
       inkscape:connector-curvature="0"
       id="path3569"
       d="m 629.6489,551.31697 c -7.12736,-0.26867 -19.83587,5.69906 -22.51728,7.30791 -8.75398,17.16464 1.40344,25.30926 -2.41124,44.38264 -3.55543,17.77721 -1.21212,24.95438 -1.21212,43.17146 0,6.03652 1.89718,15.89833 0,21.58988 -1.44294,4.32882 -4.50199,30.50324 -2.37414,34.75896 2.18338,4.36676 1.34211,12.13704 4.78538,15.58032 10.52257,10.52255 8.37715,4.01655 21.58988,8.42079 30.7092,10.23641 64.87686,-13.60985 74.34039,-43.17975 6.72011,-20.99777 0.58252,-46.21516 -14.39419,-68.37264 -3.45251,-5.10785 -20.94935,-4.45401 -26.36038,-7.15953 -4.57907,-2.28953 -26.97677,6.60905 -27.60225,5.98357 -4.41049,-4.41048 5.03542,-56.12666 0.0139,-61.14815 -0.85648,-0.85649 -2.21321,-1.27346 -3.85798,-1.33546 z m 21.52773,86.78243 c 14.13691,2.75129 27.81025,7.23152 25.49889,24.87296 -0.78101,5.96109 -5.7019,19.77354 -8.39576,25.16127 -6.64542,13.29079 -24.02043,19.16213 -33.57376,9.6088 -3.09962,-3.09962 1.18707,-21.80967 1.18707,-26.37526 2.09716,-12.16137 2.27191,-25.21313 3.59832,-28.77915 3.72558,-2.98047 7.78467,-5.24773 11.68524,-4.48862 z"
       style="fill:#4141ff;stroke:#ffffff;stroke-width:1.18707216000000004px;stroke-linecap:butt;stroke-linejoin:miter;stroke-opacity:0;fill-opacity:1" />
    <path
       style="fill:#ff5555;fill-opacity:1;stroke:#000000;stroke-width:0.83685958px;stroke-linecap:butt;stroke-linejoin:miter;stroke-opacity:0"
       d="m 135.46857,361.71285 c -0.40096,-12.65185 -36.518408,-5.98564 -49.3961,14.28788 -4.189,6.5948 -8.134739,16.31746 -10.170151,23.65886 -4.195219,15.13149 13.049825,62.21568 28.172541,67.68846 5.43403,1.96653 11.31258,3.28984 16.60993,5.20691 13.82817,5.00431 31.07887,-3.87817 38.54859,-10.97662 3.63694,-3.45618 1.33556,-9.33661 3.95087,-14.25014 0.98545,-1.85144 5.09559,-11.81836 2.75573,-14.2806 -2.00118,-2.10585 -6.71336,0.0607 -9.53054,-1.43878 -1.81909,-0.96824 -11.26916,-4.4513 -13.08547,-2.72527 -3.08575,2.93238 0.50121,21.539 -14.88974,21.14676 -1.6266,-0.0414 -8.88979,2.91702 -10.78659,0.92101 -6.04342,-6.3595 -23.172083,-24.73952 -15.75713,-38.67041 3.14991,-5.91792 2.78492,-13.19751 5.23737,-17.80507 3.03996,-5.71133 23.05532,-11.32694 27.67063,-6.47023 1.55289,1.63411 1.88021,4.43289 3.43309,6.067 0.22042,0.23194 24.98156,-2.74863 25.18902,-2.94577 4.27011,-4.05789 -9.25089,-36.34719 -27.95205,-29.41399 z"
       id="path3597"
       inkscape:connector-curvature="0" />
    <path
       style="fill:#ff5555;fill-opacity:1;stroke:#ffffff;stroke-width:0.83685958px;stroke-linecap:butt;stroke-linejoin:miter;stroke-opacity:0"
       d="m 215.90208,353.29043 c -2.86489,-0.0578 -6.04448,0.49031 -9.70021,1.84563 -13.38593,1.78169 -31.81103,27.71753 -32.1205,39.86077 -0.17071,6.69847 -0.11327,28.06824 1.55239,33.52481 3.05924,10.02192 5.1309,17.69403 12.48437,25.4321 11.05714,11.63544 35.17975,21.87604 51.06341,14.43383 11.02862,-5.16739 13.73821,-25.73807 17.67585,-36.61876 2.16205,-5.9743 6.37779,-22.96727 3.16672,-29.82059 -5.7224,-12.21308 -12.56678,-24.25713 -20.69385,-32.80924 -7.21514,-7.59252 -13.19648,-15.64205 -23.42818,-15.84855 z m 1.89528,27.25507 c 0.29005,-0.002 0.61104,0.01 0.91503,0.0233 7.6569,6.45221 13.52127,10.00329 17.45115,18.39074 3.95477,8.44052 4.37377,16.22841 4.11399,26.42216 -1.38871,54.49199 -66.02283,7.97097 -38.66268,-30.88659 4.78052,-6.78941 7.19135,-13.90896 16.18251,-13.94963 z"
       id="path3599"
       inkscape:connector-curvature="0" />
    <path
       style="fill:#ff5555;fill-opacity:1;stroke:#ffffff;stroke-width:0.83685958px;stroke-linecap:butt;stroke-linejoin:miter;stroke-opacity:0"
       d="m 288.50227,341.94085 c -2.97816,-0.0593 -6.03903,0.49183 -9.07411,1.9139 -4.27298,2.00209 -4.73772,3.35429 -7.31585,5.80428 -5.55872,5.28245 -0.75958,103.70709 -2.52873,118.72972 4.81923,0.48594 11.29438,2.27602 13.7792,2.33934 0.69223,0.0176 1.4076,0.0183 2.11829,0.0279 -1.05654,-3.88017 -2.13375,-8.1764 -0.67184,-9.56565 0.56856,-0.54031 1.13135,-1.39546 1.68419,-2.44231 0.0321,-22.3827 -2.53613,-59.70735 6.09953,-67.9138 0.78135,-0.74251 1.31057,-0.19983 1.67134,1.14133 1.07943,-2.15718 2.46849,-2.90551 4.28935,-0.98942 7.16044,7.53493 1.17159,54.97307 -1.35434,79.83304 5.27704,-0.0366 10.7498,-0.14326 16.30464,-0.26465 2.85579,-16.35746 0.39331,-69.6888 4.12601,-76.70165 2.02517,-3.80478 4.09299,-6.23648 6.1739,-8.21398 1.05697,-1.00444 1.77526,0.29192 2.28295,2.80502 0.69212,-0.19658 1.48796,-0.30216 2.43999,-0.27789 8.78403,0.22385 4.15273,40.36495 3.74888,40.74872 -0.47732,0.4536 -1.06495,1.1807 -1.701,2.07564 -0.36681,12.14806 -4.98367,25.15431 -5.26056,36.01954 -0.0276,1.08283 -1.0529,2.2771 -1.44473,3.31171 7.16101,-0.15464 14.2883,-0.27663 21.14449,-0.27212 5.35141,-11.65393 10.18144,-100.57748 5.7598,-110.01446 -5.4436,-11.61807 -15.03071,-16.58006 -28.43543,-10.29935 -5.64783,2.64626 -8.91178,21.2071 -8.82294,17.72116 0.0738,-2.89578 3.17668,-8.95196 0.30515,-11.97367 -4.95464,-5.21378 -14.68191,-13.33072 -25.31818,-13.54228 z"
       id="path3604"
       inkscape:connector-curvature="0" />
    <path
       style="fill:#ff5555;fill-opacity:1;stroke:#ffffff;stroke-width:0.83685958px;stroke-linecap:butt;stroke-linejoin:miter;stroke-opacity:0"
       d="m 370.67926,470.55466 c -1.17206,-2.54027 11.41699,1.97846 14.37196,-0.82965 2.953,-2.80621 -1.98824,-63.41676 5.38236,-70.42104 1.9882,-1.88937 4.40626,-14.61341 9.86558,-11.70759 9.23262,4.91422 0.77241,67.96096 -3.11393,75.26245 -6.258,11.75726 12.41731,10.35731 15.35388,7.5667 2.74558,-2.60912 -0.80859,-15.19759 -0.73826,-17.95734 0.20264,-7.95142 3.03703,-56.53046 6.30336,-59.63445 1.58657,-1.50771 5.67755,-13.66033 12.134,-6.86618 15.85044,16.67945 -17.45307,69.99076 -3.35759,84.82346 1.58886,1.67197 5.47847,-1.05628 6.00608,-1.04284 3.71365,0.0946 9.99199,1.00029 11.98173,-0.89055 2.54987,-2.42314 1.52458,-12.89734 1.62152,-16.7013 0.49503,-19.42454 9.72461,-84.25933 -1.1488,-95.70143 -1.49484,-1.57303 -4.79503,-1.36429 -5.91471,-2.54254 -16.15242,-16.99723 -26.49664,11.28376 -30.18272,11.18982 -0.79674,-0.0203 0.60996,-1.8125 0.0609,-2.39024 -2.00781,-2.11283 -3.46881,-6.10459 -5.76243,-8.51817 -2.23211,-2.34886 -17.1959,-11.64715 -22.55509,-6.55432 -22.41633,21.30218 -13.14823,46.66378 -13.90053,76.18348 -0.35866,14.07355 -4.92248,35.51343 3.59267,46.73173 z"
       id="path3615"
       inkscape:connector-curvature="0" />
    <path
       style="fill:#ff5555;fill-opacity:1;stroke:#ffffff;stroke-width:0.83685958px;stroke-linecap:butt;stroke-linejoin:miter;stroke-opacity:0"
       d="m 463.35941,353.32639 c -2.13494,21.89676 -2.31745,44.00883 -2.87028,65.70144 -0.14635,5.74244 -0.2819,30.38275 2.73257,33.55489 3.31507,3.48846 6.46262,10.48217 9.22599,13.39004 2.26851,2.38717 7.32063,1.56766 9.46963,3.82904 9.47512,9.9707 27.15706,-2.48364 31.256,-6.37886 11.93461,-11.34142 19.57584,-64.24687 20.15028,-86.78732 0.17981,-7.05574 5.77863,-25.82569 3.12122,-28.6221 -1.95311,-2.05526 -20.76417,0.32208 -21.57318,1.84202 -5.64173,10.59946 3.10177,37.41289 -2.41342,47.77457 -4.01533,7.54384 -0.54648,18.09522 -4.22497,25.00627 -1.32311,2.48579 -3.7563,6.61538 -3.82904,9.46964 -0.085,3.3364 -10.53685,19.59145 -15.90213,13.94556 -15.31912,-16.12036 -4.49824,-58.12374 -3.90452,-81.42083 0.0622,-2.43888 3.61539,-13.37597 2.75573,-14.2806 -2.67613,-2.81611 -20.92359,2.44314 -23.99388,2.97624 z"
       id="path3630"
       inkscape:connector-curvature="0" />
    <path
       style="fill:#ff5555;fill-opacity:1;stroke:#ffffff;stroke-width:0.83685958px;stroke-linecap:butt;stroke-linejoin:miter;stroke-opacity:0"
       d="m 576.71272,327.64369 c -6.31278,-0.23971 -16.7221,1.82363 -18.27923,1.78395 -4.16011,8.79319 -3.5293,18.67879 -2.50329,28.42483 -5.54282,0.73421 -9.7921,1.52619 -11.41285,2.32519 1.13534,5.08912 -1.16254,22.1045 -0.57898,22.71859 0.82354,0.86662 7.03838,0.17937 8.36588,0.2132 1.52973,0.039 3.07267,0.0908 4.62538,0.1963 -1.37472,24.99558 -5.72954,52.90852 4.23139,74.1678 7.01699,14.97611 16.10035,10.38479 27.08093,16.2294 6.655,3.54222 34.2877,-26.5203 28.35563,-32.76263 -1.45892,-1.53523 -7.53227,-4.59214 -10.61916,-6.23518 -1.11084,-0.59126 -7.11627,-7.24254 -8.21331,-6.20004 -0.59204,0.56262 -3.19225,22.52005 -17.12751,15.10277 -9.82336,-5.22865 -6.39441,-30.35281 -6.09728,-42.01196 0.0703,-2.75837 0.72329,-8.91853 1.61233,-16.04753 7.67953,1.07138 15.31764,2.14311 22.64782,2.32992 2.3354,0.0595 9.83011,3.49011 11.94368,1.48159 1.36671,-1.29877 0.28109,-11.02978 0.33446,-13.12397 0.10061,-3.94815 1.49466,-18.60097 -1.88685,-20.40084 -2.26034,-1.2031 -14.9572,-1.04693 -28.56122,-0.23083 1.01047,-5.49374 1.9068,-9.41406 2.50417,-9.98175 0.55381,-0.52628 4.69355,-9.79859 2.70967,-11.88623 l -4.66231,-4.90616 c -0.71887,-0.75647 -2.36509,-1.10656 -4.46935,-1.18647 z"
       id="path3645"
       inkscape:connector-curvature="0" />
    <path
       style="fill:#ff5555;fill-opacity:1;stroke:#ffffff;stroke-width:0.83685958px;stroke-linecap:butt;stroke-linejoin:miter;stroke-opacity:0"
       d="m 668.82866,353.83078 c -18.76345,-0.29182 -36.41772,9.04272 -37.35236,19.32237 13.95648,19.63138 28.75547,-13.92656 47.6943,6.00282 2.98389,3.13993 -2.09738,11.30437 -2.70966,11.88622 -2.11283,2.00782 -10.76718,-1.42615 -13.18077,0.86747 -2.00442,1.9048 -7.22811,1.05252 -9.63361,3.33846 -6.71469,6.38097 -16.67125,8.57027 -22.00369,18.58862 -12.17646,22.87661 4.10929,56.29716 28.45077,56.91749 9.04184,0.23043 33.54872,3.09326 39.51548,-2.57692 3.93007,-3.73475 -2.04086,-18.91669 0.60896,-23.89505 3.28631,-6.17418 4.7272,-65.5226 1.82753,-71.71127 -2.59137,-5.53067 -6.84524,-10.9172 -11.6124,-13.4546 -6.74264,-3.58888 -14.26233,-5.17142 -21.60455,-5.28561 z m 10.0215,59.45628 c 0.55382,-0.0308 1.12239,0.13416 1.68199,0.72304 1.50264,1.58122 -0.75129,15.86433 -2.25966,26.05043 1.50497,5.78275 2.60609,12.08979 0.15576,14.41833 -4.13819,3.93251 -15.28401,0.94527 -23.38382,-2.1917 -0.0103,-0.003 -0.0151,-0.0228 -0.0254,-0.0268 -1.47567,-1.55286 -5.50332,-3.18726 -7.47846,-5.2657 -0.4665,-0.49089 -0.66317,-1.2145 -0.73234,-2.05917 0.0888,-0.55009 0.12249,-1.06171 -0.0176,-1.36079 0.20405,-3.35561 1.67686,-7.76521 0.23652,-9.2809 -0.10406,-0.1095 -0.20206,-0.22064 -0.30573,-0.32171 1.23936,-2.61463 4.04378,-9.00127 5.61742,-13.06782 0.26127,-0.20739 0.49182,-0.39085 0.66825,-0.5585 3.02557,-2.8752 8.47382,-6.50744 14.78404,-6.29413 0.78688,0.0271 1.59139,0.11508 2.39986,0.27045 1.88605,-0.42206 4.31625,-0.46553 6.10606,-0.41992 0.73753,0.0188 1.63018,-0.56381 2.55322,-0.6151 z"
       id="path3650"
       inkscape:connector-curvature="0" />
    <path
       style="fill:#ff5555;fill-opacity:1;stroke:#ffffff;stroke-width:0.83685958px;stroke-linecap:butt;stroke-linejoin:miter;stroke-opacity:0"
       d="m 749.39548,329.11411 c -5.76467,0.14594 -18.72301,3.28995 -21.11522,3.22898 -3.47418,6.83103 -4.41133,17.52469 -4.42375,28.84678 -4.27571,0.28348 -8.10636,0.44742 -10.7093,0.38109 0.82018,4.96108 -4.62632,17.68107 -0.55965,21.96043 1.06484,1.12053 9.26297,-1.27427 11.87477,-1.97333 0.28449,6.50097 0.5423,12.59556 0.417,17.51191 -0.42827,16.80539 -2.75484,50.03837 6.91526,60.21424 0.41259,0.43417 0.23688,2.82634 0.77679,3.39448 3.50022,3.6833 9.77872,6.82723 13.25762,10.48809 1.36671,1.4382 10.49573,0.0935 11.83812,-0.53544 2.45653,-1.151 7.28449,0.50104 9.35035,-1.46214 3.24073,-3.07965 8.16048,-6.93857 12.09663,-10.67907 2.51265,-2.38778 2.65656,-9.92248 3.67846,-10.89361 0.32413,-0.30801 3.52227,-4.10525 1.82442,-5.8919 -2.095,-2.20459 -12.6079,-12.98291 -16.56615,-13.08379 -0.47411,-0.0121 -0.70543,2.94328 -0.92254,3.35118 -1.73082,3.25179 -3.79669,6.87328 -6.17106,9.12965 -2.33434,2.21832 -5.2512,2.40373 -8.50894,2.32071 -0.93868,-0.0239 -5.32606,0.46222 -5.9084,-0.15057 -4.94076,-5.19917 -4.56878,-19.86826 -4.36159,-27.9981 0.0955,-3.74906 1.40914,-23.44751 2.50552,-35.69734 10.48079,0.35762 21.52794,0.9389 22.87427,1.65551 1.39968,0.745 9.22951,4.44352 10.94173,2.8164 0.51273,-0.48724 0.54059,-21.21216 0.62428,-24.49634 0.0204,-0.80141 0.62658,-4.54847 0.12926,-5.07181 -0.5383,-0.56646 -11.77004,1.16362 -12.72284,1.37618 -4.0022,0.89286 -8.67735,-1.21599 -12.67954,-0.32313 -1.32508,0.29562 -2.95193,0.58422 -4.70499,0.87419 1.37538,-7.46441 2.54226,-15.58174 2.60015,-17.85359 0.0854,-3.35065 2.45536,-8.69088 0.27983,-10.98021 -0.34428,-0.36229 -1.30019,-0.49313 -2.63049,-0.45945 z"
       id="path3664"
       inkscape:connector-curvature="0" />
    <path
       style="fill:#ff5555;fill-opacity:1;stroke:#ffffff;stroke-width:0.83685958px;stroke-linecap:butt;stroke-linejoin:miter;stroke-opacity:0"
       d="m 794.1983,359.76282 c 7.69277,-1.47213 15.79822,-0.91735 23.66587,-0.95322 0.89107,-0.004 2.52812,-1.74797 2.53218,-0.85689 0.0326,7.14628 -5.96877,22.3922 -3.24269,30.4479 1.2096,3.57443 1.67659,21.2374 -0.73747,23.67357 -3.26364,3.29352 4.15939,39.36142 0.21574,47.33943 -1.61086,3.25875 1.5551,9.47072 -0.7914,11.83871 -1.5076,1.5214 -12.92803,-0.18777 -13.52942,-0.7837 -1.87537,-1.85838 -4.88353,2.73454 -6.75892,0.87616 -3.8123,-3.7777 1.67641,-15.11507 -0.93781,-20.28447 -1.69751,-3.3567 -0.88496,-8.68836 -0.90314,-12.67635 -0.12064,-26.47116 10.32497,-54.34775 0.48706,-78.62114 z"
       id="path3669"
       inkscape:connector-curvature="0" />
    <path
       style="fill:#ff5555;fill-opacity:1;stroke:#ffffff;stroke-width:0.83685958px;stroke-linecap:butt;stroke-linejoin:miter;stroke-opacity:0"
       d="m 804.14597,316.6039 c -7.32451,-1.91829 -12.1195,5.20645 -14.31695,11.90035 -4.26249,12.98445 16.30504,24.30893 25.42975,15.10067 7.86933,-7.94138 3.27928,-30.66881 -11.1128,-27.00102 z"
       id="path3671"
       inkscape:connector-curvature="0" />
    <path
       style="fill:#ff5555;fill-opacity:1;stroke:#ffffff;stroke-width:0.83685958px;stroke-linecap:butt;stroke-linejoin:miter;stroke-opacity:0"
       d="m 830.76924,358.63681 c -2.74181,4.2526 6.0589,27.70873 5.68383,42.42636 -0.0583,2.28767 2.12558,22.3575 2.7773,23.74844 4.9161,10.49225 0.2474,47.36159 13.16035,47.69067 2.31053,0.0589 11.46684,-1.81732 13.52132,0.34459 0.27335,0.28766 4.45371,2.36457 5.0274,1.81938 4.58903,-4.36091 9.08211,-29.80965 11.95522,-37.74869 1.03922,-2.8717 3.39752,-5.46036 4.44071,-8.34313 4.95229,-13.68443 12.88824,-41.17605 13.27415,-56.31895 0.0876,-3.43652 6.50949,-18.31464 5.56581,-19.30766 -1.02593,-1.0796 -9.44248,-0.24063 -10.98607,-0.27997 -3.76071,-0.0958 -13.10072,-1.56884 -15.23296,0.45743 -2.54782,2.4211 -15.70636,52.21247 -15.8309,57.09942 -0.10676,4.1891 -2.80966,10.70324 -2.90137,14.30177 -0.0431,1.69016 1.56094,5.11357 -0.12922,5.0705 -1.03605,-0.0264 -4.53976,-15.92638 -5.46331,-17.89747 -4.59359,-9.80399 -4.06771,-50.27092 -7.91754,-54.32212 -2.41927,-2.54579 -14.84741,0.89527 -16.94472,1.25943 z"
       id="path3673"
       inkscape:connector-curvature="0" />
    <path
       style="fill:#ff5555;fill-opacity:0.98943787;stroke:#ffffff;stroke-width:0.83685958px;stroke-linecap:butt;stroke-linejoin:miter;stroke-opacity:0"
       d="m 946.05622,355.63759 c -14.9876,-0.0516 -28.31348,15.80674 -38.28981,34.54996 -2.52409,4.74211 -1.05686,24.39211 0.10857,29.61628 0.89142,3.99582 -0.68189,8.7852 0.51345,12.70086 6.27058,20.54182 6.92283,29.78688 29.4835,37.9514 6.02826,2.18158 12.79645,6.97131 20.15381,4.72543 2.99698,-0.91486 7.37718,-0.95091 10.20825,-2.27741 10.33482,-4.84231 12.31178,-18.09316 12.59653,-29.26634 0.0412,-1.61581 1.26054,-9.08915 0.2585,-10.14363 -0.48198,-0.50716 -14.60343,-0.12754 -16.09542,1.29024 -2.77259,2.63478 -2.1649,8.63899 -4.51496,10.87228 l -7.80165,7.41384 c -1.73271,1.64656 -5.59934,-0.30827 -7.62908,0.64271 -1.96782,0.92208 -5.37779,-0.45131 -6.70227,-1.84507 -1.61374,-1.69815 -5.38895,-2.20778 -7.49983,-4.4291 -4.01797,-4.22813 -6.14786,-22.7029 -6.00166,-30.36816 2.89121,0.98223 6.37724,1.00957 9.24842,2.5378 13.89301,7.39478 33.87471,-6.62978 40.05628,-12.50408 2.42599,-2.30544 2.8554,-6.82065 5.30833,-9.15165 0.77357,-0.73512 1.64014,-9.22535 -0.0185,-15.69668 l 6.6e-4,-0.0261 c 0.0454,-0.50022 0.0259,-1.01794 -0.0126,-1.54378 -0.39353,-1.00507 -0.77219,-1.80581 -1.17282,-2.22735 -5.08963,-5.35588 -10.48528,-11.89269 -15.62154,-17.2977 -2.08888,-2.19815 -6.57914,-3.09278 -9.66245,-4.77199 -0.12583,0.0928 -0.24621,0.1879 -0.37325,0.27826 -2.20303,-0.69493 -4.39892,-1.02259 -6.54004,-1.02996 z m 7.85275,19.32334 c 0.61035,0.0297 1.182,0.15222 1.61214,0.38116 2.69046,1.43202 4.4023,2.91438 5.80056,4.38581 2.47996,2.6097 0.82979,10.63178 4.30275,11.82949 -0.27071,1.10289 -0.9051,2.2631 -2.15465,3.45058 -1.93826,1.84189 -23.76191,7.05352 -27.209,5.21883 -1.00672,-0.53587 -5.2837,-2.0837 -8.76442,-3.04868 2.3983,-7.62461 6.6136,-13.04504 13.58137,-19.66656 1.61561,-1.53536 5.29156,-0.39993 7.65098,-1.50544 1.01941,-0.47764 3.34947,-1.13402 5.18027,-1.04519 z"
       id="path3701"
       inkscape:connector-curvature="0" />
    <path
       style="fill:#ff5555;fill-opacity:1;stroke:#ffffff;stroke-width:2.39701819px;stroke-linecap:butt;stroke-linejoin:miter;stroke-opacity:0"
       d="m 228.04521,842.45581 c -2.55518,-0.632 -10.90702,11.1905 -5.54311,16.5544 1.28411,1.2841 0.43876,4.7084 1.72286,5.9925 0.91554,0.9156 0.33335,3.3787 0.37453,5.1686 -7.74315,-0.1599 -14.67869,-0.5962 -15.80533,-1.7229 -1.08619,-1.0862 -51.88891,1.7229 -57.37862,1.7229 -2.60365,-0.9027 -10.1741,3.4589 -3.37081,10.2622 3.24669,3.2467 13.2325,1.7229 17.97764,1.7229 l 57.30371,0 c 6.06078,0 19.5328,-2.6682 24.86907,0 6.86259,3.4312 51.88924,3.1566 58.2026,0 3.56452,-1.7823 3.78011,-3.7802 5.99254,-5.9926 3.64992,-3.6499 -8.1216,-5.9925 -9.43826,-5.9925 l -55.65577,0 c -1.9115,0 -6.04719,0.048 -10.78658,0.075 0.4325,-0.7402 0.87345,-1.5222 1.42323,-2.6218 1.24398,-2.4879 -0.89888,-13.2289 -0.89888,-17.1536 0,-0.6703 0.42717,-3.8426 0,-4.2697 -2.30689,-2.3069 -3.44313,-2.4265 -8.53938,-3.4457 -0.11285,-0.1585 -0.27908,-0.2575 -0.44944,-0.2997 z"
       id="path3728"
       inkscape:connector-curvature="0" />
    <path
       style="fill:#ff5555;fill-opacity:1;stroke:#ffffff;stroke-width:2.39701819px;stroke-linecap:butt;stroke-linejoin:miter;stroke-opacity:0"
       d="m 204.37465,891.96921 c -2.46231,0.1728 -6.25425,1.8462 -6.74161,2.1723 -6.38566,3.8314 -8.93837,9.8372 -12.80906,13.7079 -8.84268,8.8427 -19.16276,9.7245 -27.4159,17.9776 -1.28413,1.2842 -1.26273,3.8096 -2.54684,5.0937 -2.29418,2.2942 -0.54187,8.0724 0.82398,9.4383 1.55909,1.5591 8.05305,-3.4457 10.33715,-3.4457 8.32977,0 49.46761,-35.252 40.22495,-44.4947 -0.3678,-0.3678 -1.05191,-0.507 -1.87267,-0.4494 z"
       id="path3726"
       inkscape:connector-curvature="0" />
    <path
       style="fill:#ff5555;fill-opacity:1;stroke:#ffffff;stroke-width:2.39701819px;stroke-linecap:butt;stroke-linejoin:miter;stroke-opacity:0"
       d="m 255.91055,894.14151 c -21.44553,15.7279 20.71316,25.0577 33.33353,37.6781 2.46622,2.4662 7.69362,2.525 10.26223,5.0937 4.05221,4.0522 14.07906,-6.5204 10.33715,-10.2623 -4.51622,-4.5162 -13.03554,-5.2452 -16.32969,-8.5394 -9.96215,-9.9621 -26.34776,-12.7147 -37.60322,-23.9701 z"
       id="path3724"
       inkscape:connector-curvature="0" />
    <path
       style="fill:#ff5555;fill-opacity:1;stroke:#ffffff;stroke-width:2.39701819px;stroke-linecap:butt;stroke-linejoin:miter;stroke-opacity:0"
       d="m 269.09415,927.99931 c -1.67502,0.1499 -3.99511,1.0038 -7.19106,2.9214 -6.10444,18.4478 -19.19024,31.548 -32.80919,44.1201 -3.42522,-4.2265 -5.80756,-10.8263 -9.13863,-14.1574 -5.38159,-5.3815 -23.76444,-29.7418 -24.86907,-29.9627 -1.39906,-0.2798 -2.84288,0 -4.26968,0 -3.42354,-3.111 -6.46052,13.24 -0.82398,18.8765 1.27599,1.276 3.90116,3.6075 5.09366,5.9926 6.17573,12.3514 14.06123,21.5363 22.47205,29.9627 -1.79649,1.6946 -3.58187,3.3571 -5.31838,5.0937 -4.53343,4.5334 -12.72959,5.8381 -17.15367,10.26209 -4.01195,4.0121 -15.51829,3.939 -21.42334,6.8916 -4.73348,2.3667 -12.69694,5.9925 -17.97764,5.9925 -2.06311,0 -8.85765,2.865 -10.26224,4.2697 -0.42803,0.428 -2.11879,-0.4281 -2.54682,0 -1.53813,1.5381 1.64169,11.0799 2.54682,11.985 2.94324,2.9432 6.25719,0.9564 9.43826,2.5469 9.42022,4.7101 20.60154,-8.9899 28.23988,-12.8091 15.10089,-7.5504 29.54522,-16.8343 42.24744,-26.74179 3.6214,3.4344 7.27771,6.90319 10.86149,10.48699 0.99601,0.996 3.99778,1.175 5.09367,1.7229 8.20266,4.1013 24.71733,10.1105 29.96273,15.3559 1.93587,1.9359 17.85412,5.9308 21.42334,7.7155 2.85734,1.4286 22.81387,6.2267 17.97764,-3.4459 -0.30936,-0.6186 -0.46524,-3.9108 -0.82397,-4.2696 -2.14646,-2.1464 -12.5838,-4.8684 -13.70795,-5.9925 -6.65727,-6.6573 -17.82329,-7.6008 -26.59192,-11.9851 -4.46469,-2.2324 -21.47033,-10.30929 -23.97019,-12.80909 -2.29313,-2.2932 -4.13919,-5.8621 -5.99254,-7.7154 -0.19416,-0.1942 -0.39089,-0.349 -0.59925,-0.5244 2.29627,-2.0951 4.48783,-4.1881 6.59179,-6.2921 3.30346,-3.3034 11.0399,-10.9188 12.88397,-14.6069 1.52001,-3.04 3.26697,-6.7126 5.09367,-8.5393 3.88013,-3.8802 14.58818,-25.1532 5.54311,-24.3448 z"
       id="path3709"
       inkscape:connector-curvature="0" />
    <path
       style="fill:#ff5555;fill-opacity:1;stroke:#ffffff;stroke-width:2.39701819px;stroke-linecap:butt;stroke-linejoin:miter;stroke-opacity:0"
       d="m 369.76892,840.17641 c -9.49426,9.1246 -7.62109,23.3408 -5.76783,40.225 l -8.839,0 c -8.91574,0 -21.22163,6.1309 -7.7154,12.884 0.6616,0.3308 9.19805,0.8622 17.82781,1.2734 0.13281,2.3913 0.14981,4.8055 0.14981,7.266 0,2.3553 0.22749,6.3185 0.82398,9.9626 -0.87186,3.4068 -0.82398,8.4711 -0.82398,15.7304 0,2.9249 1.02952,8.1994 1.79777,13.5581 -4.11834,3.4611 -11.57218,5.7821 -16.32969,9.5881 -2.47188,1.2 -2.20836,-1.2373 -7.7154,4.2697 -5.03079,5.0307 4.12016,14.1572 10.26224,11.0862 4.20077,-2.1004 8.47166,-4.0261 12.58435,-5.9925 -2.01329,8.4175 -1.42324,24.1086 -1.42324,32.5845 0,2.7293 1.73686,15.34179 0,17.07859 -0.44292,0.443 -0.42848,2.3792 -0.0747,4.4945 -0.67601,2.1821 -1.45334,3.9253 -2.47193,4.9439 -0.0489,0.048 -0.0976,0.105 -0.14981,0.1498 -0.30962,-0.053 -0.39469,-0.091 -0.74907,-0.1498 -1.26932,-0.2117 -5.97627,0.8402 -6.81652,0 -3.80038,-3.8004 -7.57425,-2.8369 -9.28845,0.6741 -0.005,0.012 -0.0695,-0.012 -0.0748,0 -0.68898,0.2207 -1.32025,0.5712 -1.79777,1.0487 -2.08595,2.086 -0.88373,3.5639 0.97379,4.6442 0.18529,2.7457 0.93158,5.8006 2.47193,7.3409 1.44325,1.4433 10.34099,1.1882 15.65553,-2.3221 4.69846,0.1487 9.2026,-0.2887 10.86149,-1.9476 0.71616,-0.7162 1.81242,-2.6364 2.62173,-3.4457 1.30798,-1.308 1.04836,-14.0579 0.89888,-21.2736 1.04573,-13.68039 1.96857,-41.38139 0.74907,-43.82039 -0.009,-0.019 0.009,-0.055 0,-0.074 0.063,-2.1075 0.0119,-4.0529 0,-5.7678 4.61694,-2.6164 8.72278,-5.4269 11.9851,-8.6892 1.42679,-1.4268 4.56576,-1.12 5.99254,-2.5468 0.97633,-0.9764 2.46938,-4.1923 3.44571,-5.1686 3.95815,-3.9581 -6.20586,-8.326 -9.43825,-5.0937 -1.71263,1.7127 -5.52159,2.8101 -9.51317,3.8203 -0.49894,-3.5103 -1.4653,-7.1604 -2.02248,-10.3371 0.62705,-4.9697 1.20922,-17.5718 1.57304,-31.0864 2.73413,0.051 4.73949,0.054 4.86894,-0.075 2.82565,-2.8256 9.91048,-3.0939 12.80907,-5.9925 1.10673,-1.1067 -0.65046,-3.2722 -0.82398,-3.4457 -1.34671,-1.3467 -2.38779,-4.9347 -3.44572,-5.9926 -1.54732,-1.5473 -7.83698,-1.2886 -13.10869,-0.4494 0.18793,-14.282 0.0516,-26.4887 -0.59925,-27.7905 -2.70765,-5.4153 -2.27815,-8.327 -9.36335,-11.1611 z"
       id="path3730"
       inkscape:connector-curvature="0" />
    <path
       style="fill:#ff5555;fill-opacity:1;stroke:#ffffff;stroke-width:2.39701819px;stroke-linecap:butt;stroke-linejoin:miter;stroke-opacity:0"
       d="m 433.81425,840.50821 c -5.74793,0.1655 -8.92676,13.5838 -11.83528,19.4008 -2.44698,4.894 -4.57246,8.1712 -6.89143,12.8091 -5.14608,10.2922 -14.34462,17.7514 -23.97018,27.4159 0,21.4845 9.80799,5.3928 14.83155,-0.1498 -1.45708,13.444 -2.9276,41.0364 0.59925,48.0902 2.09718,4.1943 -3.41428,11.1176 0,14.5319 1.19952,1.1995 8.86725,3.1927 11.16112,0.8989 1.62582,-1.6258 -0.89888,-8.5818 -0.89888,-10.3372 0,-9.7134 -2.6367,-43.416 0.89888,-50.4872 0.84324,-1.6864 1.68431,-2.6024 3.3708,-3.4457 4.66117,-2.3306 11.33819,1.7459 16.92895,1.7229 -1.10711,3.5227 -3.22099,8.6379 -3.22099,13.7079 0,14.2082 -9.12737,20.2136 -15.43081,26.517 -2.00422,2.0043 11.83331,12.2118 12.88397,11.1612 4.01558,-4.0156 5.80724,-11.7998 10.26224,-16.2548 3.37484,-3.3749 9.43826,-28.4137 9.43826,-34.2324 0,-0.844 -0.0726,-2.1044 -0.14981,-3.3708 2.33951,-0.1487 4.85474,-0.2541 7.49067,-0.2997 0.0766,5.4885 2.01164,11.5683 0.37454,16.4795 -1.17133,3.514 -2.86453,19.3828 0,22.2474 4.60944,4.6094 18.82198,16.3093 28.23987,6.8914 1.71216,-1.7122 6.00324,-0.9096 7.7154,-2.6218 0.15672,-0.1567 0.23086,-0.3545 0.37454,-0.5243 -0.47903,6.7344 -0.50836,12.3167 0.44944,14.2323 1.98643,3.9729 -1.5583,8.6143 4.26969,8.6143 1.97795,0 2.52377,0.024 3.44571,-0.8989 1.27992,-1.2799 4.84123,-1.3956 5.99254,-2.5468 4.56791,-4.568 0,-26.819 0,-33.4085 0,-9.5699 4.39147,-31.5638 -1.72285,-37.6781 -0.93129,-0.9313 -17.56509,-1.0197 -33.33353,-0.9738 0.43169,-3.1426 0.82397,-6.5631 0.82397,-6.7416 0,-4.1529 8.39078,-10.4845 5.09366,-17.0788 -6.45385,-12.9077 -40.87081,0.1781 -44.49465,-3.4457 -0.408,-0.408 -0.7531,-0.6496 -1.1236,-0.8989 2.29883,-2.8281 4.56931,-6.3854 4.56931,-9.3633 0,-1.0642 -0.54841,-2.9554 -1.42322,-4.6442 0.36424,-1.2583 0.36987,-2.4017 -0.29963,-3.0712 -1.62635,-1.6264 -3.09307,-2.2854 -4.4195,-2.2472 z m 29.06384,27.341 c 2.34899,-0.047 3.93883,0.1186 4.41951,0.5992 0.81579,0.8158 -4.8049,13.3876 -7.34088,19.6256 -5.13819,0.042 -9.61882,0.075 -11.46074,0.075 -11.40378,0 -22.3946,2.5468 -32.50956,2.5468 l -1.72286,0 c 2.64142,-3.0656 5.31885,-6.1428 7.71541,-8.5393 0.348,-0.348 0.60945,-0.7718 0.89888,-1.1985 2.44609,-2.0354 4.45996,-6.3861 6.06745,-10.3372 6.09759,0.4728 25.08442,-2.5928 33.93279,-2.7715 z m 30.93651,29.9627 c 2.10025,-0.041 3.82359,0.078 4.34461,0.5992 1.42831,1.4284 0.82397,5.7768 0.82397,8.5394 0,3.3787 -0.57864,9.6719 -1.27342,16.4046 -0.1419,-0.047 -0.30597,-0.078 -0.44944,-0.1498 -1.08896,-0.5445 -5.21421,-3.3252 -5.99254,-2.5468 -2.3613,2.3613 -2.77693,17.0011 -12.80907,11.9851 -7.33296,-3.6665 -4.87191,-22.3361 -3.3708,-34.3823 4.07812,0.083 7.47982,0.1498 9.36335,0.1498 1.36453,0 5.86294,-0.5314 9.36334,-0.5992 z"
       id="path3754"
       inkscape:connector-curvature="0" />
    <path
       style="fill:#ff5555;fill-opacity:1;stroke:#ffffff;stroke-width:2.39701819px;stroke-linecap:butt;stroke-linejoin:miter;stroke-opacity:0"
       d="m 453.43984,945.97701 c -0.91298,-0.1438 -3.43503,0.3424 -3.221,1.1985 0.28534,1.1414 2.30428,-0.5386 3.44571,-0.824 0.208,-0.208 0.0796,-0.3266 -0.22471,-0.3745 z m 0.22471,0.3745 c -1.86657,1.8666 -4.10146,1.4797 -5.16857,2.5468 -3.51388,3.5139 1.51319,11.5804 0,14.6069 -0.18872,0.3775 -0.34112,0.8275 -0.52434,1.3483 -5.28138,0.1738 -10.55125,0.2996 -15.73044,0.2996 -13.36279,0 -34.81343,2.5026 -36.85415,4.3446 0.8815,4.4075 2.04411,7.9618 4.34459,10.2622 2.05706,2.0571 8.52415,-0.9141 10.26224,0.8241 1.78647,1.7864 8.64787,0.8988 11.98509,0.8988 2.47862,0 11.62395,-0.2922 21.49825,-0.5992 -5.41824,9.3632 -18.35047,23.89349 -22.39714,27.94019 -3.99563,3.9956 -10.11901,5.8493 -13.70794,9.4383 -1.83436,1.8343 -22.02855,3.5896 -15.3559,10.2623 8.13732,8.1373 34.28782,-4.3253 41.04894,-11.0863 5.30417,-5.3041 12.07198,-12.9829 15.4308,-19.70049 1.26578,-2.5315 9.22182,-14.2281 10.26224,-13.7079 3.21116,1.6055 2.57106,6.8407 5.16857,9.4382 2.71982,2.7198 4.79487,3.9709 6.81652,5.9925 2.57255,2.57259 2.04914,7.14279 4.26969,9.36339 6.95108,6.9511 13.96239,12.2396 20.59937,18.8765 2.05429,2.0544 5.95635,0.8627 7.6405,2.5468 0.86007,0.8601 13.46993,4.5078 15.4308,2.5469 11.46774,-11.4677 -4.26456,-12.804 -9.43825,-17.9776 -0.42803,-0.4281 -2.11878,0.428 -2.54683,0 -2.57508,-2.5751 -9.02742,-5.5817 -11.9851,-8.5395 -1.04932,-1.0493 -4.72982,-0.4601 -5.99254,-1.7227 -4.64344,-4.64349 -7.29061,-10.73649 -11.98509,-15.43089 -3.54433,-3.5444 -6.74665,-6.234 -9.88771,-9.1386 5.66239,-0.331 10.01525,-0.738 10.78658,-1.1236 4.59492,-2.2974 31.91305,1.1222 37.60323,-1.7228 2.4774,-1.2387 4.75386,-3.5152 5.99255,-5.9927 0.17521,-0.3502 0.23979,-4.0298 0,-4.2696 -1.21865,-1.2187 -18.56487,-0.824 -23.97019,-0.824 -9.13081,0 -17.67782,-1.7228 -27.34099,-1.7228 -2.65852,0 -5.38336,0.087 -8.08993,0.1498 -0.12323,-6.1129 -0.30608,-13.4122 -8.16485,-18.1275 z"
       id="path3768"
       inkscape:connector-curvature="0" />
    <path
       style="fill:#ff5555;fill-opacity:1;stroke:#ffffff;stroke-width:2.39701819px;stroke-linecap:butt;stroke-linejoin:miter;stroke-opacity:0"
       d="m 558.11424,848.03291 c -4.9223,2.8352 -6.02383,6.9761 3.02669,11.5014 1.66818,0.8341 12.48993,15.5166 14.52812,17.5548 2.18004,2.18 15.13347,7.5696 15.13347,1.816 0,-1.5015 3.46926,-7.4268 2.42135,-8.4747 -8.47217,-8.4722 -23.08995,-15.8259 -30.87228,-23.6082 -1.03871,-1.0388 -2.92348,0.5537 -4.23735,1.2107 z"
       id="path3799"
       inkscape:connector-curvature="0" />
    <path
       style="fill:#ff5555;fill-opacity:1;stroke:#ffffff;stroke-width:2.39701819px;stroke-linecap:butt;stroke-linejoin:miter;stroke-opacity:0"
       d="m 550.85017,899.48661 c -0.40356,0.8071 -0.40356,2.8249 -1.21068,2.4214 -0.8071,-0.4036 1.84877,-3.0595 1.21068,-2.4214 -0.55553,0.5556 -3.90522,6.3856 -3.02669,7.2641 7.00334,7.0033 13.4665,11.6505 19.97618,18.1601 0.86659,0.8666 4.26224,7.2641 6.05338,7.2641 2.90355,0 5.17169,5.7244 9.08007,1.816 0.13064,-0.1306 4.29301,-8.3634 4.23738,-8.4747 -0.0807,-0.1616 -6.33599,-5.5894 -7.26407,-6.0534 -1.65363,-0.8268 -3.96611,-4.9055 -4.84272,-6.6587 -1.65957,-3.3192 -5.57501,-3.1537 -7.26404,-4.8428 -4.67824,-4.6782 -8.02738,-10.7052 -16.94949,-8.4747 z"
       id="path3814"
       inkscape:connector-curvature="0" />
    <path
       style="fill:#ff5555;fill-opacity:1;stroke:#ffffff;stroke-width:2.39701819px;stroke-linecap:butt;stroke-linejoin:miter;stroke-opacity:0"
       d="m 581.72243,960.02051 c -0.8071,-0.6054 -3.02669,-1.0089 -2.42135,-1.816 0.60534,-0.8072 3.43026,1.816 2.42135,1.816 -2.82055,0 -6.59644,-6.1157 -9.08007,-3.6321 -3.11134,3.1114 -4.2374,13.3176 -6.65874,18.1602 -0.90688,1.8138 0.30156,4.8449 -0.60534,6.6587 -1.22327,2.4466 -0.68847,7.3472 -2.42135,9.0801 -4.46957,4.4696 -7.73469,17.42009 -11.50142,21.18679 -0.32697,0.327 -5.01602,11.7602 -4.84271,12.1068 2.67763,5.3553 9.52936,6.5027 13.31744,10.2908 2.8835,2.8835 9.28812,-20.9976 10.29077,-23.0029 2.69985,-5.3997 3.5438,-14.43989 7.26407,-18.16009 0.25844,-0.2585 2.29085,-9.4246 3.02669,-10.8962 1.49315,-2.9862 0.49271,-7.0388 1.816,-9.6853 0.639,-1.2781 3.52222,-7.374 2.42135,-8.4748 -0.89761,-0.8976 -1.27634,-1.8817 -3.02669,-3.632 z"
       id="path3816"
       inkscape:connector-curvature="0" />
    <path
       style="fill:#ff5555;fill-opacity:1;stroke:#ffffff;stroke-width:2.39701819px;stroke-linecap:butt;stroke-linejoin:miter;stroke-opacity:0"
       d="m 654.33993,841.40711 c -6.69252,0.6972 -7.26596,5.0967 -7.26596,17.5282 0,1.7605 -0.77024,5.7255 0,7.2659 0.77073,1.5415 1.19851,4.9568 1.19851,6.6667 0,1.525 0.30319,3.7652 0.52434,6.1424 -0.82694,0.066 -1.62691,0.1767 -2.32211,0.5243 -2.3513,1.1757 -6.04506,-0.6104 -8.46447,0.5993 -5.49632,2.7481 -23.75967,-3.551 -33.25863,1.1985 -0.0216,0.7767 -2.47242,4.1943 0.59925,7.266 0.90014,0.9001 9.6603,0.8975 11.46075,1.7977 3.4245,1.7123 19.83089,2.5073 30.7118,1.9476 -0.912,2.8403 -1.0487,6.1003 -1.0487,9.5881 0,5.3136 -0.59925,10.7658 -0.59925,15.7304 0,3.4637 0.65323,10.2112 1.79776,15.8053 -9.56587,-0.2982 -42.19217,-4.3722 -50.78683,-0.075 -1.25431,0.6272 -7.78994,7.9405 -4.86893,10.8615 3.44726,3.4473 11.41541,1.8727 16.32968,1.8727 4.60668,0 9.81896,-1.2734 14.53193,-1.2734 3.22837,0 10.50855,1.4124 13.33341,0 0.32185,-0.1609 0.76007,-0.2468 1.27341,-0.3745 -1.34578,6.1863 -2.75175,21.853 -6.14235,25.2436 -0.41941,0.4194 -0.17993,2.5769 -0.59926,2.9963 -2.42446,2.4244 -3.78703,11.053 -5.4682,12.7341 -6.90495,6.905 -10.82892,16.78889 -14.53193,24.19499 -0.66693,1.3338 -1.21293,3.2998 -1.34832,5.2434 -1.15878,0.071 -2.61814,0.2248 -2.84645,0.2248 -1.53858,0 -15.55869,-0.1717 -15.73044,0 -1.95136,1.9513 -4.75325,3.5547 -6.6667,5.4681 -1.3088,1.3089 2.33539,5.9443 2.99627,7.266 2.14138,4.2828 14.43168,0.5993 18.80162,0.5993 5.54904,0 16.39348,-1.4356 23.89527,-3.4457 3.40803,0.4012 7.01494,0.3745 7.56559,0.3745 2.66714,0 42.4294,-3.9112 42.99651,-4.1948 0.46819,-0.2342 10.68061,-3.0712 10.86149,-3.0712 1.03115,0 5.44396,-1.0604 8.91391,-2.6217 3.23379,5.4004 5.61802,10.3084 5.61802,12.9589 0,1.9573 7.44021,11.3614 11.53565,7.2659 0.8831,-0.883 8.68664,-7.1187 7.26595,-8.5394 -4.06752,-4.0675 -9.06717,-11.992 -12.1349,-18.1274 -1.35348,-2.707 -1.52879,-6.3978 -3.59552,-8.4645 -2.57603,-2.57599 -5.09356,-5.69269 -7.86522,-8.46439 -1.52491,-1.525 -3.15335,-6.7489 -5.4682,-9.0638 -0.55688,-0.5568 -1.34241,-3.9582 -1.79777,-4.8689 -2.45953,-4.9191 -6.07056,-7.7935 -8.53938,-10.2623 -0.39682,-0.3968 -0.66586,-2.5385 -1.1985,-3.0711 -0.99877,-0.9989 -2.78231,0 -4.19479,0 0.56395,-0.4794 -2.55751,1.9583 -5.46819,4.8689 -2.18014,2.1802 3.99396,11.5835 4.86894,13.3334 0.85058,1.7012 2.84102,7.71 3.59553,8.4645 1.88974,1.8897 6.03456,7.0546 10.26223,13.03379 -1.63227,0.3888 -3.10178,0.9517 -4.19477,1.4981 -3.54412,1.7721 -8.09313,-0.5227 -11.53566,1.1985 -2.51938,1.2598 -5.99636,0.5637 -8.46447,1.7978 -8.68023,4.3401 -28.77774,2.8654 -43.9703,4.045 2.90519,-4.5211 5.07316,-9.7718 7.04124,-13.70799 0.38745,-0.7749 0.49422,-2.9661 1.19851,-3.6704 3.95728,-3.9573 18.80161,-35.9287 18.80161,-42.3224 0,-1.7588 1.48989,-5.3161 1.49813,-8.09 9.82941,0.9053 23.62435,-1.089 29.36348,0.824 3.97073,1.3236 9.29046,-0.7484 13.33341,0.5993 9.21781,3.0726 23.08832,2.3051 29.06386,-3.6705 0.27982,-0.2798 -0.18266,-1.4322 0,-1.7977 1.82354,-3.6471 -4.11303,-7.8653 -7.26597,-7.8653 -10.29594,0 -38.74332,-3.9816 -55.88049,-2.8464 0.11603,-1.8487 0.14981,-3.6303 0.14981,-4.4195 0,-4.4617 3.2651,-16.616 1.27342,-20.5994 -0.65681,-1.3136 -1.88854,-9.7461 -2.09739,-14.9065 2.49549,0.2903 5.14839,0.9738 6.89142,0.9738 6.22851,0 37.37242,1.4294 40.00024,-1.1985 l 2.99629,-2.9962 c 0.23586,-0.2359 0,-2.1026 0,-2.472 0,-5.28 -10.60434,-5.9925 -16.32969,-5.9925 -7.96141,0 -21.81642,-3.2672 -32.13503,-2.4719 0.39963,-10.6377 -0.11261,-25.6186 -1.19851,-27.7905 -1.62808,-3.2561 -3.28629,-7.2659 -7.26596,-7.2659 z"
       id="path3818"
       inkscape:connector-curvature="0" />
    <path
       style="fill:#ff5555;fill-opacity:1;stroke:#ffffff;stroke-width:2.39701819px;stroke-linecap:butt;stroke-linejoin:miter;stroke-opacity:0"
       d="m 764.22823,848.44831 c -0.3555,0.016 -0.67239,0.1341 -0.89888,0.2247 -0.83782,0.3352 -1.58989,0.795 -2.39702,1.1985 l 2.99628,0.5993 c -1.30487,1.3049 -1.19851,15.3861 -1.19851,18.7267 0,7.2631 1.43027,28.076 -1.19851,33.3335 -2.09852,4.197 2.09851,11.5334 0,15.7305 -1.36755,2.7351 -2.0817,18.2337 -0.59926,21.1986 1.37673,2.7534 -2.27556,14.7748 0,19.3259 1.29296,2.586 -1.92981,5.8034 -0.59925,8.4646 1.84614,3.6921 0.71043,16.5157 2.99627,18.8016 0.67413,0.6741 40.05723,0.5992 44.19502,0.5992 4.06904,0 26.9114,2.7517 28.46459,1.1985 0.87317,-0.8731 -0.57439,-4.3194 0,-5.4682 2.61051,-5.221 1.20885,-33.9121 -1.1985,-38.7268 -1.74163,-3.4833 1.10261,-9.1057 -0.67416,-12.6593 -0.66009,-1.3202 1.16492,-23.4536 1.87266,-24.8691 0.37382,-0.7476 2.20962,-36.1053 1.79777,-36.929 -0.69614,-1.3922 -1.1985,-1.7966 -1.1985,-3.5955 0,-2.1278 0.22782,-14.9034 -0.59927,-15.7305 -0.42803,-0.428 -3.59729,0 -4.26968,0 l -25.39341,0 -20.59938,0 c -3.70681,0 -8.52962,1.801 -12.1349,0.5993 -1.7148,-0.5716 -6.87489,-2.1378 -9.36336,-2.0225 z m 56.92919,12.6593 c 0.73188,-0.019 1.29446,0.021 1.49814,0.2247 0.0703,0.07 -0.75653,2.7864 -1.19852,3.6704 -1.45367,2.9074 0,10.1392 0,13.3334 0,2.8749 -1.27162,8.9175 0,11.4608 0.19019,0.3803 1.22617,1.7701 0.59925,2.397 -0.0353,0.035 -15.63893,-0.5993 -17.6031,-0.5993 -4.24756,0 -23.76525,-0.5144 -25.99266,0.5993 -0.51296,0.2565 -2.95589,1.3138 -3.67043,0.5992 -2.04102,-2.041 0.65812,-24.628 -1.19851,-28.9889 5.66976,-2.8349 33.5513,-1.8727 40.5995,-1.8727 0.96786,0 4.77071,-0.7683 6.96633,-0.8239 z m -1.87267,42.4721 c 1.0711,-0.031 1.89719,0.012 2.17229,0.1498 0.40354,0.2018 0.87947,0.2802 1.19852,0.5993 0.9467,0.9467 -1.19852,18.6237 -1.19852,21.1986 0,1.0011 1.50697,5.759 0.59925,6.6667 -0.24943,0.2495 -15.98434,-1.4003 -16.92894,-1.8726 -5.4418,-2.7209 -28.6675,3.5424 -30.33725,1.8726 -0.008,-0.01 0.67416,-12.7001 0.67416,-13.9326 0,-4.9145 0.16918,-9.9636 -0.67416,-14.532 11.36726,0 22.36319,0.5993 33.93279,0.5993 1.65349,0 7.34856,-0.6562 10.56186,-0.7491 z m 3.37081,39.4759 c 0.42803,0.4281 0,3.5973 0,4.2697 0,4.4767 -1.84779,22.297 -0.59927,24.7942 0.22212,0.4441 1.19852,1.9601 1.19852,2.397 0,0.2853 -0.39743,-0.3974 -0.59925,-0.5993 -0.42804,-0.428 -3.59733,0 -4.2697,0 l -16.32969,0 -22.99639,0 c -1.02889,0 -2.26875,1.3268 -2.99627,0.5993 -0.0228,-0.022 0.59925,-15.7524 0.59925,-17.5282 0,-4.1221 0.21392,-8.3504 -0.59925,-12.1349 2.97823,0.7445 38.61757,-0.1634 39.92533,-0.5993 1.02272,-0.3409 6.48239,-1.3828 6.66672,-1.1985 z"
       id="path3846"
       inkscape:connector-curvature="0" />
    <path
       style="fill:#ff5555;fill-opacity:1;stroke:#ffffff;stroke-width:2.39701819px;stroke-linecap:butt;stroke-linejoin:miter;stroke-opacity:0"
       d="m 779.06281,990.89271 c 3.02757,0.5101 11.13343,8.8427 10.89607,9.0801 -1.41869,1.41869 -2.81866,1.60809 -4.23735,3.02669 -2.6601,2.6601 -3.57494,7.207 -6.0534,9.6855 -3.20875,3.2086 -8.91251,8.9124 -12.71211,12.712 -3.32632,3.3264 -9.04594,4.8086 -12.10677,7.8695 -2.273,2.273 -9.86256,-7.6923 -9.08007,-8.4748 3.77638,-3.7764 10.35594,-9.7507 15.13345,-14.5281 4.57238,-4.5724 12.04154,-6.5283 15.13349,-12.71209 1.27029,-2.5406 1.14668,-3.5254 3.02669,-6.6588 z"
       id="path3867"
       inkscape:connector-curvature="0" />
    <path
       style="fill:#ff5555;fill-opacity:1;stroke:#ffffff;stroke-width:2.39701819px;stroke-linecap:butt;stroke-linejoin:miter;stroke-opacity:0"
       d="m 806.90837,998.15681 c 2.04441,-1.8206 11.82617,-7.5447 12.10676,-7.2641 1.69719,1.6972 1.22511,6.6732 3.02669,8.4748 1.05069,1.05069 3.91534,2.09929 5.44806,3.63199 2.91046,2.9105 17.43762,17.3204 18.16016,18.7656 0.68195,1.3638 3.63203,2.2699 3.63203,3.0266 0,0.5521 -5.63276,5.0274 -6.05338,5.448 -0.34468,0.3447 -2.14531,6.3296 -3.63205,4.8427 -1.49472,-1.4947 -4.75199,-2.3306 -6.65872,-4.2374 -1.12662,-1.1266 -2.41832,-4.5385 -4.23737,-5.448 -1.66336,-0.8317 -3.8059,-1.9899 -4.8427,-3.0266 -0.95109,-0.9512 -1.47025,-3.2864 -2.42135,-4.2374 -6.50816,-6.5081 -8.02322,-14.7722 -14.52813,-19.97619 z"
       id="path3869"
       inkscape:connector-curvature="0" />
    <path
       style="fill:#ff5555;fill-opacity:1;stroke:#ffffff;stroke-width:2.39701819px;stroke-linecap:butt;stroke-linejoin:miter;stroke-opacity:0"
       d="m 865.02086,854.69161 c -6.96451,9.7379 -2.42134,30.4279 -2.42134,42.979 0,5.1905 1.75965,23.1156 0,26.6349 -1.45919,2.9184 -1.21069,9.1466 -1.21069,12.1068 0,7.0814 0.60534,13.446 0.60534,20.5815 0,11.1194 -5.14366,26.787 4.23738,31.4776 1.65849,0.8292 3.45197,0.7854 4.84269,-0.6053 2.01536,-2.0154 3.47419,-6.5009 5.44806,-8.4748 1.36274,-1.3628 -1.21068,-16.3957 -1.21068,-18.1602 0,-3.0919 -2.18739,-13.7853 -1.21069,-15.7388 1.25729,-2.5145 1.81603,-13.7808 1.81603,-16.9494 0,-3.9555 -1.72275,-12.8986 0,-16.3442 3.04311,-6.0862 2.62246,-39.5501 -0.60534,-46.0057 -2.01822,-4.0364 -6.53507,-11.5014 -10.29076,-11.5014 z"
       id="path3886"
       inkscape:connector-curvature="0" />
    <path
       style="fill:#ff5555;fill-opacity:1;stroke:#ffffff;stroke-width:2.39701819px;stroke-linecap:butt;stroke-linejoin:miter;stroke-opacity:0"
       d="m 873.49561,1017.5277 c 9.31429,-0.5204 22.47309,4.7671 28.45091,-1.2108 3.17058,-3.1705 2.6761,-38.83749 0,-44.18959 -0.80791,-1.6159 1.21066,-25.2475 1.21066,-29.6616 0,-7.3998 0.23155,-22.9133 -1.816,-29.0563 -1.68521,-5.0556 0.60534,-36.1848 0.60534,-43.5844 0,-3.0196 3.20191,-27.4154 3.63204,-27.8455 1.37454,-1.3746 6.35536,-0.7571 7.86938,0 1.27666,0.6383 5.08307,-0.9704 6.05338,0 0.14934,0.1493 0.14934,3.4826 0,3.632 -4.74791,4.7479 -3.02669,19.0756 -3.02669,26.0295 0,12.8445 -0.90026,29.3822 3.02669,41.1631 1.1453,3.4358 0.23347,12.8507 -1.21066,15.7388 -2.01781,4.0356 2.01779,11.0978 0,15.1334 -1.5373,3.0746 -1.81603,26.0178 -1.81603,31.4776 0,9.8193 2.20196,40.17189 -3.02669,45.40039 -0.50639,0.5064 -0.0331,3.0598 -0.60534,3.6321 -2.52857,2.5285 -6.21087,4.3948 -8.47473,6.6586 -0.90505,0.9051 -4.63397,-0.2087 -5.44804,0.6054 -3.59387,3.5939 -31.32618,0.8321 -25.42422,-13.9227 z"
       id="path3901"
       inkscape:connector-curvature="0" />
  </g>
</svg>
