<?xml version="1.0" encoding="UTF-8" standalone="no"?>
<!-- Created with Inkscape (http://www.inkscape.org/) -->

<svg
   xmlns:dc="http://purl.org/dc/elements/1.1/"
   xmlns:cc="http://creativecommons.org/ns#"
   xmlns:rdf="http://www.w3.org/1999/02/22-rdf-syntax-ns#"
   xmlns:svg="http://www.w3.org/2000/svg"
   xmlns="http://www.w3.org/2000/svg"
   xmlns:sodipodi="http://sodipodi.sourceforge.net/DTD/sodipodi-0.dtd"
   xmlns:inkscape="http://www.inkscape.org/namespaces/inkscape"
   width="1052.3622"
   height="744.09448"
   id="svg5946"
   version="1.1"
   inkscape:version="0.48.3.1 r9886"
   sodipodi:docname="secure_peer.svg"
   inkscape:export-filename="/home/substack/projects/talks/nodefest_japan/images/secure_peer.png"
   inkscape:export-xdpi="100"
   inkscape:export-ydpi="100">
  <defs
     id="defs5948" />
  <sodipodi:namedview
     id="base"
     pagecolor="#241b2a"
     bordercolor="#666666"
     borderopacity="1.0"
     inkscape:pageopacity="1"
     inkscape:pageshadow="2"
     inkscape:zoom="0.5"
     inkscape:cx="644.7104"
     inkscape:cy="206.06554"
     inkscape:document-units="px"
     inkscape:current-layer="layer1"
     showgrid="false"
     inkscape:window-width="1364"
     inkscape:window-height="766"
     inkscape:window-x="0"
     inkscape:window-y="0"
     inkscape:window-maximized="0" />
  <metadata
     id="metadata5951">
    <rdf:RDF>
      <cc:Work
         rdf:about="">
        <dc:format>image/svg+xml</dc:format>
        <dc:type
           rdf:resource="http://purl.org/dc/dcmitype/StillImage" />
        <dc:title></dc:title>
      </cc:Work>
    </rdf:RDF>
  </metadata>
  <g
     inkscape:label="Layer 1"
     inkscape:groupmode="layer"
     id="layer1"
     transform="translate(0,-308.2677)">
    <path
       style="fill:#4646ff;fill-opacity:1;stroke:#ffffff;stroke-width:1px;stroke-linecap:butt;stroke-linejoin:miter;stroke-opacity:0"
       d="m 546.21694,690.79412 c 5.48914,-2.31797 10.99369,-4.71559 16.625,-7.53125 5.50071,-2.75035 33.21043,-9.14793 33.96875,-9.90625 8.37213,-8.37213 69.52119,-8.5 86.25,-8.5 35.1526,0 68.89186,-1.40625 106.0625,-1.40625 12.32555,0 40.74054,0.83285 50.90625,-4.25 3.78471,-1.89236 14.15625,0.94217 14.15625,0 0,-1.0541 -2.0984,-0.66089 -2.84375,-1.40625 -4.92488,-4.92488 -5.92589,-17.1192 -14.125,-21.21875 -4.10128,-2.05064 -27.1827,1.4375 -33.9375,1.4375 l -91.9375,0 c -12.7145,0 -54.89974,-6.50325 -65.03125,-1.4375 -1.97074,0.98537 -10.18409,0.27785 -11.34375,1.4375 -5.22205,5.22205 -59.32345,9.13048 -72.125,15.53125 -2.63376,1.31692 -9.11483,-0.76017 -11.3125,1.4375 -2.08129,2.08129 -8.98737,4.69774 -16.78125,7.3125 1.99559,4.54639 4.0746,9.03083 5.9375,13.65625 1.77795,4.41449 3.47669,8.86308 5.0625,13.375 0.16979,0.48309 0.3016,0.98439 0.46875,1.46875 z"
       id="path8476"
       inkscape:connector-curvature="0" />
    <path
       style="fill:#00ff00;fill-opacity:1;stroke:#ffffff;stroke-width:1px;stroke-linecap:butt;stroke-linejoin:miter;stroke-opacity:0"
       d="m 859.37319,589.10662 c -9.58237,0.17705 -74.3879,15.20691 -79.3125,19.59375 -4.08706,3.64077 -29.78929,12.12921 -36.25,14.90625 -10.7647,4.62707 -22.83787,14.95472 -31.0625,22.28125 -9.05338,8.06479 -30.60813,16.62528 -42.3125,21.65625 -9.52893,4.09588 -78.83545,26.0262 -79.4375,26.5625 -3.43635,3.06112 -26.01815,2.93837 -31.46875,5.28125 -17.38021,7.47065 -94.982,28.51948 -112.09375,27.53125 -34.98531,-2.02044 -58.46962,-22.83775 -88.65625,-34.875 -4.56573,-1.82063 -12.6584,-0.73637 -17,0.4375 -4.31712,1.16726 -9.80788,-1.97975 -14.125,-0.8125 -8.83176,2.38791 -18.45855,3.83391 -27.25,5.5 -13.57348,2.57235 -93.40979,40.36883 -101.90625,47.9375 -9.71627,8.65529 -6.32688,6.28909 -10.5625,10.71875 l 17.8125,35.03125 c 0.72887,-1.26906 1.58805,-2.52849 2.53125,-3.78125 -0.26268,-0.20595 -0.375,-0.41612 -0.375,-0.59375 0,-26.31966 29.38969,-25.17094 43.8125,-39.59375 2.12132,-2.12132 9.19117,0.71507 11.3125,-1.40625 13.88015,-13.88015 74.5121,-21.21875 96.1875,-21.21875 3.96666,0 32.93922,12.23523 39.59375,15.5625 7.48895,3.74448 18.02294,2.46043 22.625,7.0625 0.94281,0.94281 4.71344,-0.94281 5.65625,0 2.82321,2.82321 13.13318,6.36725 24.8125,9.84375 3.95478,-0.42774 8.01864,-0.72887 11.9375,-0.5 3.52456,-0.99913 7.00767,-2.21323 10.4375,-3.6875 5.08052,-2.1838 25.73212,-0.15936 28.5,-2.625 7.7448,-6.8991 30.4461,-5.89217 41.59375,-8.90625 24.60795,-6.65342 49.79769,-12.07964 73.3125,-18.4375 7.7866,-2.10533 15.62867,-8.10347 23.3125,-11.40625 10.63694,-4.57215 32.83747,-9.15319 40.59375,-16.0625 7.80553,-6.9532 20.33373,-10.09058 26.40625,-15.5 11.87328,-10.57676 29.18125,-20.79099 44.0625,-27.1875 5.699,-2.44964 31.71015,-16.20463 35.09375,-19.21875 0.57849,-0.51532 30.55366,-11.07838 36.1875,-13.5 6.97103,-2.99641 28.60745,-4.05513 31.5625,-6.6875 0.51437,-0.45821 8.44755,0.86632 8.46875,0.5 0.098,-1.69685 -1.46319,-3.1371 -2.59375,-4.40625 -0.34043,-0.38216 0.86947,-10.78338 -0.59375,-14.1875 -0.51986,-1.20944 1.1876,-4.70897 0.34375,-5.65625 -0.11393,-0.12789 -0.51743,-0.16805 -1.15625,-0.15625 z"
       id="path8450"
       inkscape:connector-curvature="0" />
    <path
       style="fill:#4646ff;fill-opacity:1;stroke:#ffffff;stroke-width:1px;stroke-linecap:butt;stroke-linejoin:miter;stroke-opacity:0"
       d="m 546.21694,690.79412 c -0.16715,-0.48436 -0.29896,-0.98566 -0.46875,-1.46875 -1.58581,-4.51192 -3.28455,-8.96051 -5.0625,-13.375 -1.8629,-4.62542 -3.94191,-9.10986 -5.9375,-13.65625 -15.12937,5.07574 -34.58089,10.11214 -35.53125,11.0625 -10.56839,10.56839 -48.74241,17.6174 -56.5625,25.4375 -0.97985,0.97984 -6.08266,0.45765 -7.0625,1.4375 -4.09568,4.09568 -14.40237,8.60744 -19.8125,11.3125 -5.00011,2.50005 -50.66709,13.91709 -52.3125,15.5625 -5.11864,5.11863 -29.98658,7.33033 -33.96875,11.3125 -4.81447,4.81447 -19.63514,4.07263 -25.4375,9.875 -10.45867,10.45867 -92.42544,30.71578 -90.5,36.78125 l -15.5625,32.53125 c 4.86734,0 81.97427,-22.56801 89.09375,-29.6875 2.52762,-2.52762 51.68799,-10.688 55.15625,-14.15625 6.34776,-6.34777 23.03135,-5.1563 32.53125,-9.90625 21.19009,-10.59504 48.94809,-16.41685 62.21875,-29.6875 2.52595,-2.52596 24.82659,-9.29534 29.6875,-14.15625 2.01586,-2.01585 18.77932,-3.73341 22.625,-5.65625 18.69359,-9.3468 37.42707,-15.33676 56.90625,-23.5625 z"
       id="path8471"
       inkscape:connector-curvature="0" />
    <g
       id="g6848"
       transform="matrix(0.64962414,-0.18670121,0.18670121,0.64962414,118.93159,289.64745)">
      <path
         sodipodi:nodetypes="csssssssssssscssssssssssssssssssssc"
         inkscape:connector-curvature="0"
         id="path5980"
         d="m 295.68557,656.01976 c -1.32127,-11.12037 -1.4485,-23.47175 0.71429,-34.28572 1.69225,-8.46127 -1.22167,-17.87691 0,-26.42857 2.4718,-17.30262 9.16778,-34.07932 17.85714,-49.28571 4.77088,-8.34903 23.01257,-32.98148 30,-38.57143 21.9299,-17.54392 76.91659,-33.29763 105,-29.28571 7.4699,1.06712 14.6991,3.22232 22.14286,4.28571 11.64504,1.66358 32.76557,8.68132 42.14286,15.71429 7.4994,5.62455 13.10231,13.42213 18.57142,20.71428 4.19329,5.59105 9.50603,10.29375 13.57143,15.71429 6.30047,8.40062 13.87674,31.93553 16.42857,42.14285 2.68774,10.75093 3.02514,22.10054 5.71429,32.85715 1.46813,5.87251 -0.75437,12.69681 0.71429,18.57143 2.01216,8.04864 2.85714,16.60168 2.85714,25 -3.83876,9.59689 -14.99764,14.76269 -27.14286,10.71428 -1.93692,-0.64564 -4.44022,0.49709 -6.42857,0 -4.06787,-1.01697 -8.48739,-2.45798 -12.14286,-4.28571 -1.9217,-0.96085 -6.48682,-0.77254 -7.85714,-2.14286 -0.7967,-0.7967 0.71429,-13.05386 0.71429,-17.14286 0,-7.76074 -2.67824,-30.89186 -5,-37.85714 -1.25012,-3.75033 -1.27385,-16.8334 -2.14286,-18.57143 -3.36779,-6.73557 -4.12085,-16.81313 -7.14286,-22.85715 -2.70581,-5.41163 -11.97564,-17.68992 -14.99999,-20.71428 -3.75212,-3.75211 -16.2003,-9.44706 -20.71429,-12.14285 -7.09333,-4.23619 -32.88995,-5.34075 -37.85715,-2.85715 -1.33333,0.66667 -3.66666,-0.66666 -5,0 -4.64686,2.32343 -27.0456,4.18846 -29.28571,6.42857 -3.44322,3.44323 -10.34191,5.34191 -14.28572,9.28572 -7.82453,7.82453 -16.7771,16.77711 -25,25 -3.075,3.07501 -3.92317,6.78031 -7.14285,10 -2.97003,2.97003 -2.98639,9.5442 -5,13.57143 -4.03305,8.06608 -2.56809,21.56475 -6.42857,29.28571 -1.10069,2.20138 0.42623,5.5761 -0.71429,7.85714 -2.02621,4.05243 2.13625,25.72089 0,27.85715 -3.38995,3.38995 -34.95959,1.95402 -42.14286,1.42857 z"
         style="fill:#c8b7b7;stroke:#ffffff;stroke-width:1px;stroke-linecap:butt;stroke-linejoin:miter;stroke-opacity:0" />
      <path
         id="path6802"
         transform="translate(0,308.2677)"
         d="m 409.375,172.8125 c -24.86564,5.18419 -51.43636,15.42409 -65.125,26.375 -6.98743,5.58995 -25.22912,30.21347 -30,38.5625 -1.07467,1.88068 -2.11553,3.79201 -3.125,5.71875 1.66583,-1.66583 5.29289,-3.88664 7.0625,-5.65625 1.69778,-1.69778 2.15031,-5.30954 5.65625,-7.0625 7.27318,-3.6366 15.85904,-2.99202 22.625,-6.375 3.89765,-1.94882 -4.07424,-7.35151 -2.09375,-11.3125 2.76468,-5.52936 9.53922,-9.12699 15.53125,-10.625 0.83375,-0.20844 8.5,-1.10742 8.5,-1.40625 0,-0.84792 -8.60377,-4.83373 -5.65625,-7.78125 1.3984,-1.3984 5.53524,0.83976 6.375,0 0.83591,-0.83591 1.00119,-2.43869 2.09375,-3.53125 2.09507,-2.09508 8.65467,-2.20233 11.3125,-3.53125 0.94281,-0.4714 2.61969,0.47141 3.5625,0 2.33806,-1.16903 2.8802,-4.9809 7.0625,-6.375 1.72765,-0.57588 14.43527,-0.99777 14.84375,-1.40625 0.90575,-0.90575 -1.14188,-1.96625 -0.71875,-2.8125 0.54086,-1.08172 1.30464,-1.96225 2.09375,-2.78125 z m -99.15625,72.46875 c -6.69052,13.14536 -11.74131,27.25168 -13.8125,41.75 -1.22167,8.55166 1.69225,17.97623 0,26.4375 -1.91642,9.58213 -2.04212,20.3672 -1.125,30.4375 1.5715,0.0378 3.02544,0.0371 3.8125,-0.75 0.83591,-0.83591 3.87619,0.40506 4.96875,-0.6875 2.89644,-2.89644 -5.71776,-11.37402 -6.375,-12.03125 -3.09509,-3.0951 6.53961,-6.76453 4.96875,-9.90625 -0.74568,-1.49137 -6.67811,-2.23752 -4.96875,-5.65625 2.00899,-4.01797 14.14114,-4.20364 16.28125,-6.34375 1.37998,-1.37999 -16.03902,-5.89848 -13.4375,-8.5 2.03533,-2.03533 8.78112,-0.31237 10.59375,-2.125 0.82457,-0.82456 -5.82605,-6.0354 -4.25,-9.1875 1.18471,-2.36943 4.23642,-1.42392 5.65625,-2.84375 0.26469,-0.2647 -4.59056,-2.4407 -2.8125,-4.21875 0.73633,-0.73633 7.65372,-3.06756 7.0625,-4.25 -1.03471,-2.06942 -9.67677,-6.11519 -7.78125,-9.90625 1.40861,-2.81722 7.78125,-5.41637 7.78125,-5.65625 0,-2.67813 -7.41197,-11.6553 -6.5625,-16.5625 z"
         style="fill:#d4c7c7;fill-opacity:1;stroke:#ffffff;stroke-width:1px;stroke-linecap:butt;stroke-linejoin:miter;stroke-opacity:0"
         inkscape:connector-curvature="0" />
      <path
         id="path6838"
         transform="translate(0,308.2677)"
         d="m 421.875,206 c -1.15896,0.0181 -2.08781,0.21281 -2.5625,0.6875 -1.17851,1.17851 -1.63398,3.07149 -2.8125,4.25 -0.56489,0.56489 -18.10044,1.81918 -20.53125,4.25 -1.64992,1.64992 -2.56884,4.00634 -4.21875,5.65625 -1.88562,1.88562 -9.42688,-1.88561 -11.3125,0 -1.56159,1.56159 2.24908,4.09466 0.6875,5.65625 -1.18414,1.18413 -6.50898,-0.58477 -7.78125,0.6875 -0.94281,0.9428 0.94281,4.71344 0,5.65625 -2.34533,2.34533 -8.57309,-0.58316 -10.59375,1.4375 -1.06066,1.06066 0.34191,4.59559 -0.71875,5.65625 -1.41421,1.41421 -6.36704,-0.72671 -7.78125,0.6875 -1.5662,1.5662 3.00345,5.49656 2.84375,5.65625 -1.41421,1.41421 -4.96078,0.71079 -6.375,2.125 -0.79344,0.79345 -4.62587,-2.29731 -5.65625,-2.8125 -1.86127,-0.93063 -12,-1.83617 -12,1.40625 0,0.84983 0.80532,1.52407 1.40625,2.125 0.62163,0.62163 1.91763,7.57387 2.8125,8.46875 1.76859,1.76859 5.12286,3.87073 6.375,6.375 0.55682,1.11364 -0.90889,0.71875 -1.40625,0.71875 -20.5039,0 -0.64746,9.04492 -2.125,12 -1.53391,3.06782 -7.4555,1.61837 -9.90625,2.84375 -0.3796,0.1898 -2.60576,0.92549 -2.125,1.40625 0.82495,0.82496 2.70629,0.5813 3.53125,1.40625 0.13171,0.13172 0.31322,0.43579 0.46875,0.625 -0.31069,0.14156 -0.83322,0.65099 -1.15625,0.8125 -2.73791,1.36896 -6.41185,1.47994 -7.78125,4.21875 -0.59591,1.19181 5.42311,7.78125 7.78125,7.78125 4.27111,0 -1.86278,4.67528 -2.84375,5.65625 -1.24219,1.24218 3.53125,5.92741 3.53125,6.375 0,1.10784 -7.07127,5.67379 -8.46875,8.46875 -1.72641,3.45282 7.57829,4.76579 9.1875,6.375 0.89159,0.8916 -8.24589,6.12089 -8.5,6.375 -2.12402,2.12401 8.88199,5.31948 9.21875,5.65625 0.64106,0.64105 -2.58057,1.86181 -2.84375,2.125 -0.86423,0.86422 -6.04436,6.6744 -5.65625,7.0625 0.99773,0.99773 7.69299,1.31882 13.6875,1.40625 1.02448,-4.82325 -2.25397,-23.11705 -0.40625,-26.8125 1.14052,-2.28104 -0.41319,-5.67362 0.6875,-7.875 3.86048,-7.72096 2.40445,-21.21517 6.4375,-29.28125 2.01361,-4.02723 2.02997,-10.59247 5,-13.5625 3.21968,-3.21969 4.08125,-6.92499 7.15625,-10 l 25,-25 c 3.94381,-3.94381 10.83803,-5.83802 14.28125,-9.28125 2.24011,-2.24011 24.63439,-4.11407 29.28125,-6.4375 1.33334,-0.66666 3.66667,0.66667 5,0 4.9672,-2.4836 30.75042,-1.36119 37.84375,2.875 3.34954,2.00037 11.05155,5.65355 16.34375,8.9375 -4.1322,-6.38836 -12.58421,-8.37023 -18.90625,-11.53125 -3.45223,-1.72611 -9.03416,0.12209 -12,-2.84375 -1.6991,-1.6991 -2.09562,-4.22063 -3.53125,-5.65625 -0.45923,-0.45924 -4.70859,1.86484 -4.96875,2.125 -0.1602,0.1602 -12.91777,-2.58388 -13.4375,-2.84375 C 430.84773,207.50199 425.35189,205.9458 421.875,206 z"
         style="fill:#bea9a9;fill-opacity:1;stroke:#ffffff;stroke-width:1px;stroke-linecap:butt;stroke-linejoin:miter;stroke-opacity:0"
         inkscape:connector-curvature="0" />
      <path
         sodipodi:nodetypes="csssssssssssscsssscsssssssscssccssc"
         transform="translate(0,308.2677)"
         inkscape:connector-curvature="0"
         id="path5984"
         d="m 593.57142,406.23733 c -0.89889,-6.95823 -1.744,-24.61003 -2.14285,-27.14285 -1.06602,-6.7695 -0.71428,-22.80982 -0.71428,-37.14286 0,-5.81268 -3.84256,-5 -9.28572,-5 -23.91911,0 -49.43385,1.42858 -73.57143,1.42858 -27.21294,0 -53.32605,4.28571 -80.71428,4.28571 -5.08823,0 -12.17121,1.24291 -17.14286,0 -10.5776,-2.6444 -22.14399,-0.71451 -32.85714,-2.85714 -12.7619,-2.55238 -42.4396,-3.94871 -54.28572,0 -5.94279,1.98093 -16.3628,-0.0219 -22.85714,2.14285 -6.04446,2.01483 -25.09653,-2.04632 -29.28571,2.14286 -5.99097,5.99097 -1.58986,24.447 -4.28572,27.14286 -3.60712,3.60712 -2.72859,38.11425 0,43.57143 2.46699,4.93398 -5.26964,64.77487 -2.14286,65 -0.25482,18.70975 2.14286,37.19688 2.14286,55.71428 0,2.95336 -3.06242,9.58945 -1.42857,12.85715 2.74644,5.49287 2.14286,25.96033 2.14286,32.14285 0,3.48012 -2.33183,23.38246 0,25.71429 2.89723,2.89724 11.52016,2.14286 15.71428,2.14286 11.39636,2.84907 -0.65389,-0.68409 3.57143,1.42857 2.07827,1.03913 17.68623,-0.71429 21.42857,-0.71429 17.14443,0 33.48136,0.71429 50,0.71429 20.08595,0 39.33847,-0.71429 59.28572,-0.71429 10.01926,0 24.11757,2.437 33.57143,-0.71428 4.53792,-1.51264 12.35003,0 17.14285,0 21.1475,0 41.73654,0.71428 62.85715,0.71428 5.96344,0 55.98712,3.29859 58.57142,0.71429 3.66532,-3.66532 -0.12181,-16.30676 1.42858,-17.85714 0.47619,-1.42857 1.01488,-2.83781 1.42857,-4.28572 0.91086,-3.18802 -2.84199,-12.17316 -0.71429,-16.42857 2.37633,-4.75265 1.33065,-25.19586 1.42857,-35.71428 0.32416,-16.22773 0.65458,-18.23433 0,-34.28572 -1.32661,-1.32661 -1.72357,-37.98143 -1.42857,-38.57143 3.75189,-7.50378 -1.39302,-24.3568 0.71429,-28.57143 1.47355,-2.9471 1.42857,-22.37336 1.42856,-27.85715 z"
         style="fill:#786d41;fill-opacity:1;stroke:#ffffff;stroke-width:1px;stroke-linecap:butt;stroke-linejoin:miter;stroke-opacity:0" />
      <path
         id="path6820"
         transform="translate(0,308.2677)"
         d="m 489.46875,232.25 c 0.73059,0.75545 1.74576,1.92973 2.9375,3.40625 0.2386,-1.07702 0.45187,-2.11063 -0.25,-2.8125 -0.39571,-0.39571 -1.38366,-0.559 -2.6875,-0.59375 z m 6.75,8.375 c 1.33703,1.79527 2.64547,3.64188 3.875,5.4375 0.10901,-1.07436 0.37093,-2.25815 -0.15625,-3.3125 -0.55738,-1.11476 -2.15067,-1.65132 -3.71875,-2.125 z M 502,248.9375 c 0.91648,1.43637 1.72891,2.77033 2.25,3.8125 3.02201,6.04402 3.78846,16.10818 7.15625,22.84375 0.86901,1.73803 0.87488,14.84342 2.125,18.59375 2.32176,6.96528 5,30.08301 5,37.84375 0,3.83344 -1.30296,14.85695 -0.8125,16.875 5.72305,-1.2092 9.78125,-3.11156 9.78125,-5.75 0,-2.87537 -7.61114,-3.18398 -6.375,-5.65625 1.48358,-2.96716 6.45264,-2.89015 8.5,-4.9375 1.33209,-1.3321 0.26836,-4.51836 0.71875,-4.96875 0.42997,-0.42998 8.1505,-3.162 5.65625,-5.65625 -2.17479,-2.17479 -11.06436,-5.81623 -12.03125,-7.75 -1.66432,-3.32865 5.43698,-5.40729 3.53125,-9.21875 -1.04933,-2.09866 -6.94238,0.12012 -8.46875,-1.40625 -0.74183,-0.74183 6.80385,-6.54522 7.0625,-7.0625 1.34095,-2.68191 -4.96875,-2.0828 -4.96875,-6.375 0,-0.29116 -0.18718,-1.93783 0,-2.125 0.27199,-0.27199 6.49476,-4.81774 4.96875,-6.34375 -0.99339,-0.99339 -6.20192,-1.81008 -7.0625,-3.53125 -0.75873,-1.51746 3.81993,-3.93007 2.09375,-5.65625 -1.58946,-1.58946 -3.85303,-0.67481 -4.9375,-2.84375 -0.42835,-0.8567 -1.27864,-3.81771 -0.71875,-4.9375 0.092,-0.18409 1.27151,-0.88474 0.71875,-1.4375 -1.16528,-1.16528 -5.80665,-3.08205 -6.375,-4.21875 -1.12294,-2.24588 0.51864,-5.16885 -1.40625,-7.09375 -0.94947,-0.94947 -4.4464,-2.27475 -6.40625,-3 z"
         style="fill:#d4c7c7;fill-opacity:1;stroke:#ffffff;stroke-width:1px;stroke-linecap:butt;stroke-linejoin:miter;stroke-opacity:0"
         inkscape:connector-curvature="0" />
      <path
         id="path6765"
         transform="translate(0,308.2677)"
         d="m 585.1875,336.90625 c -1.12568,-0.0146 -2.38921,0.0312 -3.75,0.0312 -23.91911,0 -49.45617,1.4375 -73.59375,1.4375 -6.43347,0 -12.78309,0.25919 -19.125,0.625 -10.47091,2.57821 -20.71619,5.09119 -25.71875,10.09375 -0.82331,0.82331 12.91811,1.45906 14,2 3.35401,1.67701 7.72277,1.36139 11,3 2.23752,1.11876 20.02008,12.95984 19,15 -2.31386,4.62772 -11.21008,3.21008 -15,7 -9.95596,9.95596 -28.08854,17.17709 -35,31 -1.48033,2.96067 -11,6.13868 -11,10 0,0.51527 7.75281,2 9,2 9.09323,0 23.31588,1.63177 28,11 5.72042,11.44084 -10.82435,25.35131 -9,29 1.25383,2.50765 4.20389,1.20389 6,3 l 7,7 c 1.94703,1.94703 13.50913,3.50913 16,6 3.34979,3.3498 6.50786,8.50786 10,12 3.97128,3.97129 -28.21276,17.78724 -22,24 2.3536,2.3536 13.74416,8.51169 11,14 -4.59392,9.18784 -35.06229,19.06229 -44,28 -1.4359,1.4359 1.84615,0.92308 2,1 1.87968,0.93984 2.3987,3 4,3 2.04436,0 18.75432,13.24568 15,17 l -9,9 c -2.79925,2.79925 -37.59367,12.29684 -45,16 -4.15109,2.07555 7.93902,7.88861 9.90625,10.84375 5.69217,0.17146 11.2908,-0.0553 15.8125,-1.5625 4.53792,-1.51264 12.33218,0 17.125,0 21.1475,0 41.75439,0.71875 62.875,0.71875 5.96344,0 55.9782,3.30305 58.5625,0.71875 3.66532,-3.66532 -0.11289,-16.32462 1.4375,-17.875 0.47619,-1.42857 1.02381,-2.83334 1.4375,-4.28125 0.91086,-3.18802 -2.84645,-12.15084 -0.71875,-16.40625 2.37633,-4.75265 1.30833,-25.20033 1.40625,-35.71875 0.32416,-16.22773 0.65458,-18.22986 0,-34.28125 -1.32661,-1.32661 -1.70125,-38.00375 -1.40625,-38.59375 3.75189,-7.50378 -1.38856,-24.34787 0.71875,-28.5625 1.47355,-2.9471 1.40626,-22.35996 1.40625,-27.84375 -0.89889,-6.95823 -1.72615,-24.62343 -2.125,-27.15625 -1.06602,-6.7695 -0.71875,-22.82321 -0.71875,-37.15625 0,-4.35951 -2.1542,-4.98735 -5.53125,-5.03125 z"
         style="fill:#6e643b;fill-opacity:1;stroke:#ffffff;stroke-width:1px;stroke-linecap:butt;stroke-linejoin:miter;stroke-opacity:0"
         inkscape:connector-curvature="0" />
      <path
         id="path6770"
         transform="translate(0,308.2677)"
         d="m 345.75,337.34375 c -9.09908,0.0322 -17.72357,0.74119 -22.90625,2.46875 -5.94279,1.98093 -16.34941,-0.0398 -22.84375,2.125 -6.04446,2.01483 -25.09207,-2.03293 -29.28125,2.15625 -5.99097,5.99097 -1.58539,24.46039 -4.28125,27.15625 -3.60712,3.60712 -2.72859,38.10532 0,43.5625 2.46699,4.93398 -5.28303,64.77487 -2.15625,65 -0.25482,18.70975 2.15625,37.20135 2.15625,55.71875 0,2.95336 -3.07135,9.57605 -1.4375,12.84375 1.02068,2.04135 1.57676,6.16784 1.875,10.84375 1.54712,-1.72492 2.92154,-3.71809 4.125,-6.125 3.77332,-7.54665 -2.87138,-13.12862 4,-20 2.21868,-2.21868 -2.14941,-7.70118 -1,-10 1.43696,-2.87392 1.62048,-4.24097 3,-7 1.28265,-2.56529 -8.13677,-4.72646 -6,-9 0.6386,-1.2772 9.9295,-8.07969 14.09375,-12.125 9.5501,-2.96183 20.7266,-1.72267 28.15625,-5.4375 1.78338,-0.89169 15.09532,-2.125 12.03125,-2.125 -10.42226,0 -44.82147,4.41956 -48.09375,-2.125 -0.86861,-1.73721 0.40948,-4.53323 0.25,-6.625 1.38882,-1.31926 7.78985,-7.33515 6.5625,-8.5625 -0.36852,-0.36852 -2.54931,-1.6743 -4.40625,-3 5.33715,-2.98895 15.15272,-3 20.9375,-3 4.01354,0 8.1437,-1.4375 12,-1.4375 2.05973,0 4.34496,-0.74977 5.53125,-1.15625 -0.42883,-0.0915 -0.94397,-0.25 -1.28125,-0.25 l -8.46875,0 c -9.11366,0 -19.25132,1.03325 -25.71875,-3.4375 1.11452,-1.2815 2.25351,-2.56601 3.40625,-3.71875 1.63627,-1.63627 -0.73801,-7.27797 -0.5625,-10.375 5.19372,-1.71882 13.45725,-2.96875 16.5,-2.96875 3.99066,0 8.95289,-1.11819 10.65625,-1.375 -2.21739,-0.0271 -9.72845,-0.75 -10.65625,-0.75 -4.57529,0 -8.56215,-0.17519 -11.9375,-0.8125 2.03627,-2.24506 4,-4.49544 4,-4.71875 0,-0.75897 -10.74551,-10.74551 -12,-12 -1,-1 1,-5 0,-6 -2.02202,-2.02202 -2.19167,-4.24274 -1.40625,-6.4375 5.40472,-1.76158 45.61362,-6.09375 51.03125,-6.09375 7.36822,0 16.58932,-3.06921 24.0625,-4.9375 0.3022,-0.0756 4.0414,-1.09091 6.21875,-1.4375 l -5.53125,0 -12,0 c -18.02333,0 -35.42062,1.74282 -50.21875,-5.65625 -1.15221,-0.5761 -3.55558,-1.37424 -5.65625,-2.3125 0.20731,-0.61275 0.41429,-1.03929 0.5,-1.125 0.11574,-0.11574 3.14572,-3.61322 5.1875,-6.21875 10.01383,-2.15731 22.74886,-1.65625 31.78125,-1.65625 2.67545,0 10.23967,0.56766 12.75,-0.6875 1.49717,-0.74861 3.51717,-0.009 4.9375,-0.71875 0.25463,-0.12731 0.63067,-0.44447 0.9375,-0.65625 -0.3284,-0.18492 -0.72799,-0.54049 -0.9375,-0.75 -0.52497,-0.52497 -4.99201,0 -5.65625,0 -4.11409,0 -8.26919,-0.71875 -12.71875,-0.71875 -7.53449,0 -23.16982,1.42252 -32.375,-0.8125 -2.16517,-2.52997 -4.32073,-5.95229 -2.90625,-8.78125 0.22215,-0.44431 0.52073,-0.87334 0.875,-1.28125 4.55571,-0.77713 24.15056,-0.62216 28.03125,-2.5625 2.73305,-1.36652 7.78125,0.33416 7.78125,-0.6875 0,-1.20938 -7.50991,-1.4375 -8.5,-1.4375 -1.53721,0 -4.15967,-1.36266 -5.65625,-3.21875 6.18414,-1.1467 12.09306,-1.96858 15.46875,-2.8125 4.65633,-1.16408 9.78651,1.10675 14,-1 2.13333,-1.06666 5.86667,1.06667 8,0 9.99724,-4.99862 -5.35521,-3.64479 -2,-7 3.36389,-3.36389 26.50433,-3.00473 33.96875,-5.5625 -1.62482,-0.16694 -3.21936,-0.40012 -4.8125,-0.71875 -7.17857,-1.43571 -19.70744,-2.51015 -31.40625,-2.46875 z m -1.15625,39.8125 c 0.25574,0.144 0.46875,0.16825 0.46875,-0.0625 0,-0.24236 -0.20754,-0.11779 -0.46875,0.0625 z m 17.3125,19.03125 0.125,0 c 0.47141,0 1.40625,0.4714 1.40625,0 0,-0.1978 -0.63469,-0.14271 -1.53125,0 z m -49.3125,43.1875 c 0.38521,0.005 0.65625,0.0145 0.65625,-0.0312 0,-0.0536 -0.27521,-0.0262 -0.65625,0.0312 z m 5.46875,22.125 c 0.4702,0.10038 0.84375,0.11982 0.84375,-0.25 0,-0.0329 -0.35703,0.0832 -0.84375,0.25 z"
         style="fill:#8b7d47;fill-opacity:1;stroke:#ffffff;stroke-width:1px;stroke-linecap:butt;stroke-linejoin:miter;stroke-opacity:0"
         inkscape:connector-curvature="0" />
      <path
         id="path6843"
         transform="translate(0,308.2677)"
         d="m 461.6875,172.3125 c -1.41053,0.39439 -2.05275,1.166 -0.65625,2.5625 2.59245,2.59246 12.2629,0.9504 13.4375,2.125 1.22215,1.22215 -2.10422,2.11454 -1.40625,2.8125 1.24815,1.24815 12.95599,1.6435 15.5625,4.25 2.31023,2.31024 -2.75635,3.61866 -2.125,4.25 0.58925,0.58926 2.22325,0.12949 2.8125,0.71875 1.565,1.565 17.24619,0.96494 19.09375,2.8125 0.97377,0.97377 -3.40404,1.66068 -2.8125,2.84375 1.77683,3.55366 7.92051,2.26426 10.59375,4.9375 3.00721,3.00721 -3.83287,6.04214 -1.40625,8.46875 2.49165,2.49165 6.72064,3.18938 9.1875,5.65625 1.30784,1.30783 -2.71408,2.94216 -1.40625,4.25 0.5928,0.5928 3.404,0.94199 2.8125,2.125 -0.75817,1.51634 -6.36895,4.95615 -3.53125,6.375 3.95608,1.97803 10.54431,0.63806 13.4375,3.53125 2.15895,2.15895 7.84159,-0.27544 12.25,-0.875 -0.6213,-1.05723 -1.24032,-2.03917 -1.84375,-2.84375 -4.0654,-5.42054 -9.36921,-10.1277 -13.5625,-15.71875 -5.46911,-7.29215 -11.09435,-15.06295 -18.59375,-20.6875 -9.37729,-7.03297 -30.47996,-14.05517 -42.125,-15.71875 -3.26784,-0.46683 -6.4951,-1.17176 -9.71875,-1.875 z M 549.0625,232 c -0.90023,0.43307 -1.696,0.78975 -1.75,0.84375 -2.24062,2.24062 3.74863,4.03262 2.125,5.65625 -0.86578,0.86578 -10.54332,3.61293 -7.78125,6.375 1.55778,1.55778 3.67826,1.58451 4.9375,2.84375 3.59916,3.59916 -4.01029,7.98971 -1.40625,10.59375 1.02717,1.02718 9.81382,2.96611 8.46875,5.65625 -0.6323,1.2646 -2.69894,1.86663 -3.53125,3.53125 -1.12024,2.24048 1.20298,6.60952 -0.6875,8.5 -0.23471,0.23471 -3.81131,1.84494 -2.84375,2.8125 0.79116,0.79116 3.83844,1.57547 4.9375,2.125 3.63252,1.81626 8.5,12.7754 8.5,15.5625 0,0.25 -5.16784,1.63659 -5.65625,2.125 -1.67856,1.67855 6.34363,3.5315 4.9375,6.34375 -0.67629,1.35259 -9.29707,7.67168 -5.65625,11.3125 1.76777,1.76777 4.60723,2.48223 6.375,4.25 0.72344,0.72344 -4.2018,3.57946 -3.53125,4.25 1.91115,1.91115 8.46875,2.58742 8.46875,7.0625 0,1.25926 -5.87086,5.90211 -6.34375,6.375 -4.09858,4.09858 0.84914,9.94063 6.65625,14.625 2.69458,-2.04124 4.83778,-4.71945 6.125,-7.9375 0,-8.39832 -0.86284,-16.95136 -2.875,-25 -1.46866,-5.87462 0.78063,-12.72124 -0.6875,-18.59375 C 565.1546,290.55589 564.81274,279.21968 562.125,268.46875 560.01957,260.04701 554.47002,242.58116 549.0625,232 z"
         style="fill:#bea9a9;fill-opacity:1;stroke:#ffffff;stroke-width:1px;stroke-linecap:butt;stroke-linejoin:miter;stroke-opacity:0"
         inkscape:connector-curvature="0" />
      <path
         id="path6775"
         transform="translate(0,308.2677)"
         d="m 585.1875,336.90625 c -1.12568,-0.0146 -2.38921,0.0312 -3.75,0.0312 -11.33426,0 -23.04145,0.3166 -34.78125,0.65625 1.21276,3.8645 6.15854,5.31479 9.34375,8.5 1.94778,1.94778 2.15485,5.15485 4,7 3.32956,3.32956 -12.54712,14.09424 -15,19 -0.15385,0.30769 -0.15385,2.69231 0,3 1.45669,2.91339 4.94322,2.94322 7,5 2.69806,2.69806 2.69282,6.69283 6,10 1.77503,1.77503 6.56787,3.56787 8,5 3.82572,3.82572 -5.82101,14.64203 -7,17 -3.11834,6.23668 7.38742,22.61258 3,27 -2.77139,2.7714 -13,13.59078 -13,14 0,0.77994 7.46778,3.46778 9,5 3.51754,3.51754 8.23259,4.23259 11,7 0.83514,0.83514 -5.37772,7.62229 -3,10 1.49518,1.49518 10.91577,7.16847 8,13 -5.78508,11.57017 -10.46334,22.46335 -18,30 -2.06275,2.06275 4,5.62368 4,7 0,3.47189 -4.33903,10.67807 -6,14 -1.43788,2.87576 12.44834,9.44834 14,11 2.33486,2.33486 -2.25574,7.51149 -3,9 -1.26442,2.52885 -0.34251,9.34251 -2,11 l -9,9 c -3.5448,3.5448 14.89626,8.10374 13,10 -8.2638,8.2638 -27.25486,9.25486 -35,17 -1.04112,1.04112 -1.22769,2.04944 -1,3 6.64988,0.0551 55.71896,3.28104 58.28125,0.71875 3.66532,-3.66532 -0.11289,-16.32462 1.4375,-17.875 0.47619,-1.42857 1.02381,-2.83334 1.4375,-4.28125 0.91086,-3.18802 -2.84645,-12.15084 -0.71875,-16.40625 2.37633,-4.75265 1.30833,-25.20033 1.40625,-35.71875 0.32416,-16.22773 0.65458,-18.22986 0,-34.28125 -1.32661,-1.32661 -1.70125,-38.00375 -1.40625,-38.59375 3.75189,-7.50378 -1.38856,-24.34787 0.71875,-28.5625 1.47355,-2.9471 1.40626,-22.35996 1.40625,-27.84375 -0.89889,-6.95823 -1.72615,-24.62343 -2.125,-27.15625 -1.06602,-6.7695 -0.71875,-22.82321 -0.71875,-37.15625 0,-4.35951 -2.1542,-4.98735 -5.53125,-5.03125 z"
         style="fill:#5e5532;fill-opacity:1;stroke:#ffffff;stroke-width:1px;stroke-linecap:butt;stroke-linejoin:miter;stroke-opacity:0"
         inkscape:connector-curvature="0" />
    </g>
    <path
       style="fill:#c8b7b7;fill-opacity:1;stroke:#ffffff;stroke-width:1px;stroke-linecap:butt;stroke-linejoin:miter;stroke-opacity:0"
       d="m 164.42101,358.43399 c -1.80527,0.14188 -3.54296,0.5917 -5.17234,1.39221 -4.6398,0.6056 -9.39613,3.17851 -13.96774,8.36835 -1.27882,1.45177 -3.82475,2.54676 -4.66097,4.52241 -5.79499,13.69125 -2.30859,16.66562 7.98632,25.73416 3.59801,3.1694 7.70912,6.64519 11.91405,9.14022 0.025,0.0147 0.0413,0.0437 0.0663,0.0584 5.20628,4.56138 11.74298,7.42802 12.34153,16.87867 0.21931,3.46269 -0.61269,6.77979 -2.26961,8.66078 -1.18864,1.34939 -0.47308,2.45795 -2.61486,3.70393 -9.84058,5.72483 -37.74864,-25.48197 -36.30445,-2.67939 0.006,0.0993 0.0392,0.18337 0.049,0.27871 -0.35535,0.22086 -0.61335,0.39543 -0.68966,0.48206 -0.81351,0.92353 4.39858,6.55434 5.41946,7.4536 4.76968,4.20151 25.71503,16.48748 33.35901,12.04054 4.47913,-2.60577 14.1947,-6.75331 16.26522,-11.64512 1.28284,-3.03084 1.6715,-6.38718 2.94347,-9.39233 1.14668,-2.70916 -1.16474,-7.51346 -1.31228,-9.84299 -0.30805,-4.86385 -4.15641,-7.72824 -6.43659,-11.6477 -3.94588,-6.7827 -10.15955,-12.95416 -14.49546,-16.77357 -2.65224,-2.33629 -9.11531,-7.73559 -7.56454,-13.14189 -0.36738,-0.43279 -0.74404,-0.83209 -1.13938,-1.18034 -2.3913,-2.10643 4.67761,-7.58341 5.1531,-8.12321 0.13706,-0.1556 0.29022,-0.2788 0.44411,-0.40388 1.3001,-0.14455 2.58372,-0.25655 3.08008,0.18068 0.95698,0.84297 7.06742,3.09071 7.98889,3.03235 2.33399,-0.14782 13.08933,14.6257 15.61799,11.75508 0.55297,-0.62775 2.07887,-1.59111 2.70375,-2.30049 2.95937,-3.35958 -1.42918,-9.34914 -2.87924,-11.84169 -4.22358,-7.26004 -15.92858,-15.48735 -25.82515,-14.70957 z"
       id="path6872"
       inkscape:connector-curvature="0" />
    <path
       style="fill:#c8b7b7;fill-opacity:1;stroke:#ffffff;stroke-width:1px;stroke-linecap:butt;stroke-linejoin:miter;stroke-opacity:0"
       d="m 241.16866,356.73645 c -4.92201,0.0322 -9.96381,1.00877 -14.90625,2.65625 -5.74443,1.91481 -10.19857,8.10483 -14.125,12.03125 -6.59783,6.59784 -6.84164,17.14573 -8.5,25.4375 -0.93379,4.66894 -1.17346,14.39989 0,19.09375 4.6,18.4 27.20193,42.33894 48.09375,35.375 4.03813,-1.34604 9.14798,0.79779 11.3125,-3.53125 0.68855,-1.3771 5.56616,-9.0974 6.375,-9.90625 1.17852,-1.17851 -0.49101,-5.19649 0.6875,-6.375 0.0707,-0.0707 1.59085,-0.53415 0.71875,-1.40625 -1.98838,-1.98838 -11.94851,-2.25924 -12.71875,-0.71875 -0.95819,1.91637 -2.59241,5.43616 -4.25,7.09375 -2.68132,2.68132 -15.40173,3.66078 -18.375,0.6875 -4.52032,-4.52031 -7.05375,-8.42001 -9.90625,-14.125 -0.94632,-1.89266 -2.125,-3.02092 -2.125,-4.96875 0,-1.25267 -2.00918,-6.49082 -0.71875,-7.78125 0.16666,-0.16666 0.48305,0 0.71875,0 l 2.125,-3.53125 c 8.42377,0.95418 17.05397,-1.40625 25.4375,-1.40625 2.70574,0 6.25823,-1.00411 8.5,-2.125 3.35222,-1.67611 7.58607,-1.24232 10.59375,-4.25 6.04466,-6.04466 3.44998,-17.24382 0.71875,-25.4375 -1.09204,-3.2761 -4.8157,-5.53445 -7.0625,-7.78125 -6.49936,-6.49936 -14.39041,-9.08489 -22.59375,-9.03125 z m -2.28125,13.71875 c 1.477,-0.0216 3.27633,0.58883 3.65625,0.96875 1.62013,1.62014 6.62033,0.27658 8.46875,2.125 2.56704,2.56704 9.64235,13.7014 4.96875,18.375 -3.83355,3.83355 -14.74637,4.25 -21.21875,4.25 -6.32674,0 -5.8039,0.21854 -7.78125,0.6875 -1.59321,-0.63729 -3.72415,-0.1929 -4.9375,-1.40625 -0.26479,-0.26479 1.89273,-15.36148 2.09375,-15.5625 1.29637,-1.29636 2.26614,-2.92239 3.5625,-4.21875 2.80656,-2.80657 6.39531,-3.2289 9.875,-4.96875 0.36196,-0.18098 0.82017,-0.24278 1.3125,-0.25 z"
       id="path6874"
       inkscape:connector-curvature="0" />
    <path
       style="fill:#c8b7b7;fill-opacity:1;stroke:#ffffff;stroke-width:1px;stroke-linecap:butt;stroke-linejoin:miter;stroke-opacity:0"
       d="m 348.60364,376.3681 c 1.09236,-1.22623 -3.13606,-4.85791 -5.65685,-9.8995 -4.55305,-9.1061 -25.29136,-8.56752 -33.94113,-4.24264 -6.32949,3.16475 -6.76696,1.81722 -12.72792,7.77818 -2.67658,2.67658 -5.14981,15.0493 -6.36396,16.26345 -2.38216,2.38216 -1.24283,6.72829 -2.82843,9.8995 -5.36385,10.72771 0.27837,28.41229 3.53553,38.18377 1.50835,4.52504 6.30336,9.13178 9.8995,12.72792 2.39614,2.39614 19.28904,8.99524 22.62742,5.65686 0.98767,-0.98768 10.95006,-0.52529 14.14213,-2.12132 5.50824,-2.75412 7.78289,-6.36868 11.31371,-9.8995 0.72882,-0.72882 0.68539,-3.51382 1.41421,-4.24264 3.21103,-3.21103 -2.16555,-14.14214 -4.94974,-14.14214 -7.91992,0 -11.02424,9.40121 -17.67767,12.72793 -3.02875,1.51437 -8.46247,-0.68429 -9.8995,-2.12132 -2.31273,-2.31273 -5.87483,-5.87484 -7.77817,-7.77818 -6.64513,-6.64512 -4.10191,-31.39416 -0.70711,-38.18377 3.44384,-6.88768 6.9889,-11.31371 16.26346,-11.31371 1.33347,0 3.34577,-0.18976 4.24264,0.70711 3.68051,3.68052 5.47274,10.42249 9.19239,14.14214 3.89138,3.89138 13.44502,-5.27832 9.89949,-14.14214 z"
       id="path6905"
       inkscape:connector-curvature="0" />
    <path
       style="fill:#c8b7b7;fill-opacity:1;stroke:#ffffff;stroke-width:1px;stroke-linecap:butt;stroke-linejoin:miter;stroke-opacity:0"
       d="m 362.66982,359.74381 c 0.29609,4.88898 -1.57632,30.03873 1.54168,42.68633 0.45109,1.82974 -1.21014,4.60594 -0.50883,6.34359 2.21979,5.49996 0.57193,12.40106 2.81563,17.96029 0.63123,1.56397 -1.0835,4.07478 -0.45229,5.63874 2.12653,5.26887 1.78347,13.64131 7.15778,16.88984 5.7589,3.481 9.85098,2.9183 17.45146,3.52795 4.51248,0.36195 13.75407,1.42261 17.14238,-1.46249 7.28178,-6.20036 9.10438,-14.45086 13.84804,-22.29869 2.4432,-4.04199 1.73638,-12.80359 2.11826,-17.56454 1.46924,-18.31695 6.16686,-41.34572 -4.21785,-53.54166 -2.14741,-2.52195 -10.52445,6.82081 -9.41924,11.30388 2.6388,10.70376 1.74174,58.27686 -4.38348,63.4924 -0.54213,0.46163 -14.4656,3.83489 -15.14092,3.0418 -3.26275,-3.83183 -5.16523,-6.06612 -8.42798,-9.89794 -2.09261,-2.45761 -2.0572,-7.63189 -3.381,-10.91187 -1.51525,-3.75432 1.13273,-9.02237 -0.39202,-12.80025 -1.64304,-4.07094 4.24524,-23.27855 1.07793,-31.12617 -1.11241,-2.75618 -8.64812,-15.62081 -10.96467,-13.64829 -2.05431,-1.81424 -5.30213,1.28822 -5.86488,2.36708"
       id="path6929"
       inkscape:connector-curvature="0"
       sodipodi:nodetypes="cssssssssssscssssscc" />
    <path
       style="fill:#c8b7b7;fill-opacity:0.99108785;stroke:#ffffff;stroke-width:1px;stroke-linecap:butt;stroke-linejoin:miter;stroke-opacity:0"
       d="m 442.31667,444.66542 c -3.55411,-10.1879 -4.73534,-23.01236 -4.31591,-33.43461 0.19328,-4.80253 0.61461,-43.42602 1.79132,-44.51169 2.82657,-2.60786 4.55742,-7.60629 7.49186,-10.31369 1.75659,-1.62067 5.1675,-0.59462 7.85719,-1.80683 12.3009,-5.54387 29.63202,1.17079 37.98228,5.77463 4.12994,2.27699 7.98762,21.20306 4.68554,24.24965 -6.68535,6.16806 -10.12161,-8.75836 -13.64733,-12.57977 -2.02401,-2.19374 -5.48852,-3.05159 -9.07122,-3.19577 -2.65146,-0.1067 -5.71745,0.51295 -7.15066,1.83527 -2.86094,2.63958 -6.7925,2.49561 -8.73432,6.01761 -2.40393,4.36018 -1.11262,10.06255 -1.33207,15.51533 -0.29852,7.41802 1.55517,34.23565 4.06,39.79341 1.1572,2.56766 -0.98465,6.88222 -1.07618,9.15652 -0.11324,2.81388 -8.41798,10.7846 -10.26112,8.78689 -0.66375,-0.71941 -6.61459,-4.54205 -8.27938,-5.28695 z"
       id="path6944"
       inkscape:connector-curvature="0" />
    <path
       style="fill:#c8b7b7;fill-opacity:1;stroke:#ffffff;stroke-width:1px;stroke-linecap:butt;stroke-linejoin:miter;stroke-opacity:0"
       d="m 538.32491,351.7052 c -5.70781,0.006 -11.23824,1.85308 -15.96875,6.1875 -3.50067,3.20753 -7.37111,4.12003 -9.5625,8.0625 -10.9009,19.61156 -15.1883,56.67573 1.6875,75.09375 5.913,6.45336 15.26565,6.34006 22.1875,10.1875 3.97472,2.20931 14.78291,1.40382 17.03125,-0.65625 2.43758,-2.23348 4.82243,-3.78093 7.3125,-6.0625 1.39056,-1.27412 8.1177,-12.65735 5.65625,-15.34375 l -3.375,-3.6875 c -0.44495,-0.4856 -3.19709,-2.04372 -4.21875,-0.875 -12.89766,14.75417 -13.33945,16.12312 -27.625,8.21875 -0.009,-0.004 -0.0226,0.004 -0.0312,0 -0.0103,-0.009 -0.0211,-0.0217 -0.0312,-0.0312 -4.05748,-1.96757 -5.06658,-3.19251 -9.84375,-8.40625 -1.62779,-1.77655 -2.38039,-11.51378 -3.65625,-12.90625 -0.35903,-0.39183 -0.93867,-7.9549 -0.34375,-8.5 3.30344,-2.02329 6.2152,-4.23524 9.75,-3.1875 0.0195,0.005 0.043,-0.006 0.0625,0 0.17661,-0.0102 0.32654,0.007 0.5,0 15.88696,-5.82834 31.49264,0.59137 43.9375,-7.09375 1.3916,-2.5266 1.65625,-9.19083 1.65625,-11.375 0,-2.14541 -0.12208,-5.05823 -0.53125,-7.71875 -5.97936,-11.00562 -19.88333,-21.22221 -33.21875,-21.875 -0.45747,-0.0224 -0.91917,-0.0317 -1.375,-0.0312 z m 3.96875,14.71875 c 0.7341,-0.007 1.98919,0.20462 2.3125,0.21875 3.70276,0.16179 8.39177,1.01446 10.46875,3.28125 0.64738,0.70654 6.30637,9.8478 3.71875,12.21875 -0.43115,0.39504 -1.29615,0.5676 -2.375,0.65625 -1.24079,1.17225 -3.95763,1.87795 -9.03125,1.65625 l -6.03125,-0.28125 c -4.34986,1.18427 -10.63434,2.39087 -16.71875,2.125 -3.61911,-0.15814 1.99423,-9.42144 2.59375,-10.5 3.59656,-6.47049 10.75536,-5.79288 14.5625,-9.28125 0.0718,-0.0658 0.2553,-0.0915 0.5,-0.0937 z"
       id="path6946"
       inkscape:connector-curvature="0" />
    <path
       style="fill:#af9f62;fill-opacity:1;stroke:#ffffff;stroke-width:1px;stroke-linecap:butt;stroke-linejoin:miter;stroke-opacity:0"
       d="m 695.89329,343.86453 c -4.48043,0.0525 -10.19122,1.14248 -12.09375,2.09375 -1.7458,0.8729 -4.51243,0.78539 -6.375,1.40625 -5.68348,1.89449 -11.648,6.7105 -14.84375,9.90625 -3.78853,3.78853 -5.16553,27.85645 -2.125,33.9375 0.96652,1.93304 0.71875,23.3253 0.71875,26.875 0,24.60327 5.22235,49.11341 3.53125,73.53125 3.12644,6.25288 12.05085,4.94915 15.5625,1.4375 7.8507,-7.8507 -2.32172,-40.11578 2.125,-44.5625 0.58925,-0.58926 -0.58926,-2.94199 0,-3.53125 1.89367,-1.89367 11.49748,2.01689 15.53125,0 6.00598,-3.00299 9.91576,-3.54076 14.15625,-7.78125 3.98824,-3.98824 5.31732,-7.79089 7.78125,-12.71875 2.34209,-4.68418 1.38281,-19.07032 4.9375,-22.625 0.58175,-0.58176 0.71875,-14.82963 0.71875,-16.96875 0,-22.49527 2.53194,-28.78091 -16.28125,-38.1875 -2.54836,-1.27418 -5.89509,-0.83817 -8.46875,-2.125 -1.04564,-0.52283 -2.83844,-0.71137 -4.875,-0.6875 z m 0.0312,17.28125 c 0.82228,0.012 1.52785,0.10403 1.96875,0.3125 3.88765,1.83818 7.43494,3.67161 10.03125,6.15625 2.17409,2.08058 0.88059,5.72441 2.3125,8.4375 1.40535,2.66275 0.83597,6.67755 0.90625,9.875 0.33949,15.4462 -1.62922,30.63991 -11.125,40.5625 -0.78982,0.82531 -3.55834,0.80992 -4.21875,1.5 -4.88894,5.10868 -13.36963,2.00943 -13.53125,-5.34375 0.43869,-0.39645 -4.70596,-51.51195 -1.90625,-54.4375 1.26756,-1.32454 2.16994,-2.98797 3.4375,-4.3125 1.15233,-1.20413 4.47267,-0.32713 5.625,-1.53125 0.52067,-0.54408 4.03316,-1.25478 6.5,-1.21875 z"
       id="path6986"
       inkscape:connector-curvature="0" />
    <path
       inkscape:connector-curvature="0"
       id="path6991"
       d="m 778.06142,345.29854 c -4.89702,-0.49642 -10.01453,-0.0668 -15.10527,1.04054 -5.91681,1.28701 -11.00977,6.96305 -15.33506,10.44523 -7.26804,5.85135 -8.64288,16.3121 -11.18187,24.3779 -1.42966,4.5417 -2.71267,14.19068 -2.04993,18.98339 2.59796,18.78751 22.49913,45.01466 44.01786,40.33395 4.1593,-0.90472 9.00945,1.77532 11.62623,-2.29632 0.83242,-1.29521 6.5107,-8.44722 7.4017,-9.16456 1.29824,-1.04517 0.0697,-5.21917 1.36796,-6.26434 0.0779,-0.0627 1.639,-0.36027 0.86557,-1.32096 -1.76341,-2.19036 -11.63689,-3.52899 -12.56807,-2.0801 -1.1584,1.80243 -3.16106,5.12642 -4.98703,6.59647 -2.95369,2.37795 -15.70574,1.98607 -18.3426,-1.28924 -4.00889,-4.97949 -6.109,-9.12865 -8.33252,-15.10691 -0.73765,-1.98332 -1.78838,-3.2316 -1.57926,-5.16817 0.13449,-1.24543 -1.30071,-6.66902 0.12081,-7.81345 0.18359,-0.1478 0.48026,0.0519 0.71459,0.0772 l 2.49184,-3.2827 c 8.27264,1.85306 17.10638,0.43282 25.44145,1.33289 2.6901,0.29049 6.32986,-0.32642 8.67901,-1.20015 3.5128,-1.30652 7.6756,-0.42069 10.98881,-3.08807 6.65868,-5.36076 5.28136,-16.77376 3.4456,-25.21331 -0.734,-3.37441 -4.19368,-6.01948 -6.18627,-8.49451 -5.76402,-7.15958 -13.33187,-10.57736 -21.49355,-11.40475 z m -3.74093,13.39454 c 1.47078,0.13709 3.19417,0.93718 3.53111,1.35569 1.43682,1.78471 6.55237,0.98575 8.19166,3.02193 2.2766,2.82781 8.11561,14.65743 2.96726,18.80225 -4.22297,3.39982 -15.11742,2.64224 -21.55239,1.94736 -6.29017,-0.67925 -5.79382,-0.40584 -7.81009,-0.15188 -1.51558,-0.80466 -3.68191,-0.59162 -4.75798,-1.92822 -0.23483,-0.29169 3.53102,-15.06949 3.75246,-15.24776 1.42805,-1.14969 2.56679,-2.6622 3.99484,-3.81189 3.09165,-2.48903 6.705,-2.52363 10.35137,-3.87984 0.3793,-0.14107 0.8415,-0.15332 1.33176,-0.10764 z"
       style="fill:#af9f62;fill-opacity:1;stroke:#ffffff;stroke-width:1px;stroke-linecap:butt;stroke-linejoin:miter;stroke-opacity:0" />
    <path
       inkscape:connector-curvature="0"
       id="path6993"
       d="m 853.65768,342.58903 c -5.69951,-0.30765 -11.32308,1.23276 -16.28461,5.3007 -3.67163,3.01033 -7.58636,3.70877 -9.99107,7.52488 -11.96205,18.98294 -18.27958,55.75553 -2.44131,75.07302 5.54947,6.76852 14.89422,7.1693 21.5942,11.39127 3.84732,2.42437 14.68344,2.21399 17.04158,0.28057 2.55662,-2.09616 5.0229,-3.51023 7.63457,-5.65153 1.45847,-1.19579 8.80094,-12.19217 6.49082,-15.00977 l -3.16728,-3.86738 c -0.4176,-0.50931 -3.07996,-2.2163 -4.1643,-1.10549 -13.68889,14.02318 -14.20523,15.36579 -28.03487,6.6884 -0.009,-0.004 -0.0228,0.003 -0.0312,-0.002 -0.01,-0.01 -0.0199,-0.0228 -0.0294,-0.0329 -3.94324,-2.18754 -4.8835,-3.46608 -9.36697,-8.93444 -1.52771,-1.86331 -1.74414,-11.62718 -2.94155,-13.08766 -0.33696,-0.41096 -0.50015,-7.99446 0.12382,-8.50604 3.40963,-1.83872 6.43853,-3.88733 9.91042,-2.64694 0.0192,0.006 0.0433,-0.004 0.0624,0.003 0.1769,-4.8e-4 0.32566,0.0249 0.49924,0.0275 16.18321,-4.94658 31.41257,2.32093 44.26091,-4.66876 1.52833,-2.44631 2.15876,-9.08593 2.27878,-11.2668 0.11789,-2.14217 0.15604,-5.0573 -0.10632,-7.73628 -5.36559,-11.31755 -18.68717,-22.2827 -31.96657,-23.66726 -0.45555,-0.0475 -0.91604,-0.0822 -1.37121,-0.10671 z m 3.15399,14.91459 c 0.73338,0.0333 1.97494,0.31361 2.29699,0.34548 3.68827,0.36501 8.32335,1.47404 10.27263,3.85153 0.60758,0.74105 5.75573,10.17945 3.04174,12.40463 -0.45221,0.37075 -1.32538,0.49552 -2.40747,0.52476 -1.30333,1.1023 -4.05484,1.65765 -9.10862,1.1575 l -6.00668,-0.61224 c -4.40836,0.94347 -10.74965,1.80293 -16.81026,1.20313 -3.60495,-0.35676 2.50891,-9.29763 3.16679,-10.34161 3.94667,-6.26309 11.05742,-5.19315 15.05049,-8.46705 0.0753,-0.0618 0.25994,-0.0773 0.50439,-0.0661 z"
       style="fill:#af9f62;fill-opacity:1;stroke:#ffffff;stroke-width:1px;stroke-linecap:butt;stroke-linejoin:miter;stroke-opacity:0" />
    <path
       inkscape:connector-curvature="0"
       id="path6995"
       d="m 901.24978,443.2512 c -3.55411,-10.1879 -4.73534,-32.20474 -4.31591,-42.62699 0.19328,-4.80253 0.61461,-43.42602 1.79132,-44.51169 2.82657,-2.60786 4.55742,-7.60629 7.49186,-10.31369 1.75659,-1.62067 5.1675,-0.59462 7.85719,-1.80683 12.3009,-5.54387 29.63202,1.17079 37.98228,5.77463 4.12994,2.27699 7.98762,21.20306 4.68554,24.24965 -6.68535,6.16806 -10.12161,-8.75836 -13.64733,-12.57977 -2.02401,-2.19374 -5.48852,-3.05159 -9.07122,-3.19577 -2.65146,-0.1067 -5.71745,0.51295 -7.15066,1.83527 -2.86094,2.63958 -6.7925,2.49561 -8.73432,6.01761 -2.40393,4.36018 -1.11262,10.06255 -1.33207,15.51533 -0.29852,7.41802 1.55517,43.42803 4.06,48.98579 1.1572,2.56766 -0.98465,6.88222 -1.07618,9.15652 -0.11324,2.81388 -6.29666,7.95618 -8.1398,5.95847 -0.66375,-0.71941 -8.73591,-1.71363 -10.4007,-2.45853 z"
       style="fill:#af9f62;fill-opacity:1;stroke:#ffffff;stroke-width:1px;stroke-linecap:butt;stroke-linejoin:miter;stroke-opacity:0"
       sodipodi:nodetypes="cssssssssssssssc" />
    <path
       style="fill:#b69b35;fill-opacity:1;stroke:#ffffff;stroke-width:1px;stroke-linecap:butt;stroke-linejoin:miter;stroke-opacity:0"
       d="m 588,404.86218 c -2.09095,-9.31867 8.90951,-9 15,-9 4.7861,0 11.01948,-0.9935 15.5,0.5 2.41204,0.80402 17.77691,-1.86154 20.5,-0.5 3.43662,1.71831 6.72827,9.27173 3.5,12.5 -2.96487,2.96487 -10.37728,-1.06136 -14.5,1 -6.698,3.349 -23.89811,1.5 -32,1.5 -1.83074,0 -5.52184,0.47817 -6.5,-0.5 -0.46563,-0.46563 -1.30828,-5.0207 -1.5,-5.5 z"
       id="path7023"
       inkscape:connector-curvature="0" />
    <path
       style="fill:#00ff00;stroke:#ffffff;stroke-width:1.27516389px;stroke-linecap:butt;stroke-linejoin:miter;stroke-opacity:0"
       d="m 119.44959,716.65468 c -9.97221,2.1086 -19.979003,5.88709 -26.384973,8.59637 -9.08766,-2.6069 -35.122748,13.96741 -46.950303,43.13148 -1.856964,4.57856 -6.111754,9.10747 -6.332229,14.31961 -0.657739,15.55461 -2.632888,30.92448 -3.320411,47.18184 -0.492509,11.64768 6.643244,21.85139 11.950318,31.025 14.588674,25.21767 41.266525,45.53439 69.572628,48.91972 7.54696,0.90249 15.93712,-3.30533 23.55456,-2.97016 31.50833,1.33241 57.87723,-5.32069 79.88792,-27.56704 42.81704,-43.27524 -2.80837,-107.70632 -28.9785,-140.98663 -9.51258,-12.09709 -26.53396,-14.41526 -35.83223,-20.54289 -2.50967,-1.65386 -8.58544,2.10368 -11.0951,0.44982 -6.18509,-4.07604 -16.09947,-3.66566 -26.07168,-1.55712 z m -0.47778,32.11473 c 7.96512,-1.84421 17.91131,-0.7835 22.08822,1.96917 l 21.50445,14.17159 c 14.15795,9.33008 40.87099,90.16837 30.94525,105.23014 -2.16662,3.28772 -14.93224,-4.48775 -16.12331,-6.00238 -5.17067,-6.57549 -9.30785,-18.35482 -14.06978,-29.85694 -10.438,6.1592 -25.97847,11.1306 -37.19122,10.45149 0.0679,12.29892 -0.61748,23.26301 -4.40964,29.0173 -1.27001,1.92731 -0.98609,16.5959 -8.12767,14.68894 -6.27225,-1.67476 -10.83008,-10.58735 -16.165003,-15.30989 0.88187,-16.10503 2.649633,-32.02269 4.715833,-49.29939 1.59794,-13.36072 7.56157,-53.86169 5.77062,-62.57509 -1.43657,-6.98922 4.03429,-10.8573 11.06225,-12.48494 z m 12.92083,40.10108 c -0.47279,0.18294 -0.92017,0.57694 -1.33776,1.2106 -5.10242,7.74252 -5.0556,23.55491 -4.70463,39.65562 0.46297,-0.50573 0.90212,-1.11306 1.3425,-1.78129 0.27027,-0.40993 16.03294,-5.7157 29.35689,-8.19016 -3.299,-5.97665 -7.07896,-11.04304 -11.6333,-14.0444 -1.68009,-1.10707 -8.45155,-18.6098 -13.0237,-16.85037 z"
       id="path7454"
       inkscape:connector-curvature="0" />
    <path
       style="fill:#4646ff;fill-opacity:1;stroke:#ffffff;stroke-width:1.36601245px;stroke-linecap:butt;stroke-linejoin:miter;stroke-opacity:0"
       d="m 882.01115,491.52203 c -13.58244,2.66156 -36.65588,19.92018 -48.54657,46.14572 -17.40321,38.38392 -28.30298,126.8091 20.45091,148.91388 3.56473,1.61632 7.41066,7.41255 11.22002,8.0251 13.54363,2.1778 29.55516,-1.48261 43.59984,0.77573 20.26099,3.2577 57.36246,-4.83978 72.54637,-15.81702 40.93028,-29.5914 46.81308,-79.40566 23.13808,-124.43185 -8.67206,-16.49326 -15.18596,-36.41039 -31.5987,-48.20391 -24.74303,-17.7791 -52.48683,-14.49053 -85.61607,-15.65278 -1.49362,-0.23157 -3.25355,-0.13522 -5.19388,0.24513 z m 16.50096,24.15974 c 15.62827,-2.68521 33.95388,3.06281 43.74206,10.09606 4.41084,3.16927 18.91127,28.04727 13.69743,35.3033 -3.98284,5.54281 -7.17115,12.41114 -12.53375,19.87458 -0.69724,0.97001 -4.98181,3.22229 -3.24789,4.46818 3.36583,2.41854 14.10419,-0.087 18.3013,2.92882 11.66707,8.38342 20.91445,23.7889 14.92487,43.06166 -6.67396,21.47455 -34.06394,47.88823 -64.88314,38.30998 -5.67476,-1.76362 -11.59324,0.1816 -16.36351,-3.24616 -10.43801,-7.50053 -14.81742,-54.2921 -17.12711,-68.39554 -3.51748,-21.4785 -5.97665,-42.54024 -6.57704,-64.19702 l 8.38449,-9.28909 c -0.10515,-0.64202 -0.69002,-1.36747 -0.31047,-1.89575 1.02151,-1.42162 6.23714,-0.19801 7.70919,-1.26252 4.19386,-3.03191 9.07415,-4.86153 14.28357,-5.7565 z m 3.61235,30.50996 c -6.22046,59.20845 34.16122,-5.5945 0,0 z m 20.97677,62.0552 c -2.58126,0.33467 -5.42195,1.3267 -8.36004,3.0993 0.42053,2.56781 3.83026,7.28871 1.26252,7.70922 -0.18348,0.03 -0.34163,-0.0195 -0.49098,-0.0926 0.79835,8.15418 2.13158,19.96769 3.96116,21.28222 2.10366,1.51181 4.63175,-2.26479 5.49615,-2.88978 19.06137,-13.7809 12.07106,-30.90849 -1.86881,-29.10838 z m -7.5885,10.71594 c -0.37317,-3.81132 -0.65656,-6.91458 -0.77154,-7.61664 -0.39047,-2.38431 -1.17325,6.64841 0.77154,7.61664 z"
       id="path7462"
       inkscape:connector-curvature="0" />
    <text
       xml:space="preserve"
       style="font-size:152.28387451px;font-style:normal;font-weight:normal;line-height:125%;letter-spacing:0px;word-spacing:0px;fill:#ffcc00;fill-opacity:1;stroke:none;font-family:monospace;-inkscape-font-specification:monospace"
       x="115.57877"
       y="1046.9133"
       id="text8433"
       sodipodi:linespacing="125%"
       transform="matrix(0.98708354,-0.16020636,0.16020636,0.98708354,0,0)"><tspan
         sodipodi:role="line"
         id="tspan8435"
         x="115.57877"
         y="1046.9133">対称鍵暗号</tspan></text>
    <path
       style="fill:none;stroke:#000000;stroke-width:1px;stroke-linecap:butt;stroke-linejoin:miter;stroke-opacity:1"
       d="m 1458,774.09448 c -10.8085,6.48507 -7.2513,3.25127 -12,8"
       id="path8491"
       inkscape:connector-curvature="0"
       transform="translate(0,308.2677)" />
  </g>
</svg>
